<?xml version="1.0" encoding="utf-8"?>
<!-- Generator: Adobe Illustrator 23.1.0, SVG Export Plug-In . SVG Version: 6.00 Build 0)  -->
<svg version="1.1" id="Capa_1" xmlns="http://www.w3.org/2000/svg" xmlns:xlink="http://www.w3.org/1999/xlink" x="0px" y="0px"
	 viewBox="0 0 1200 1200" enable-background="new 0 0 1200 1200" xml:space="preserve">
<g>
	<path fill="#F47F6B" d="M1125.33,632.859v43.204c-11.184,4.554-48.327,19.069-93.325,29.856
		c-48.697,11.669-171.338,6.461-193.993,5.379c-0.313-0.712-0.598-1.395-0.853-2.021c-0.655-1.651-2.078-2.875-3.786-3.33
		l-15.937-4.212c12.551-18.87,24.078-39.276,31.221-53.65c17.276,0.996,89.169,5.009,118.57,5.009
		c33.47,0,108.295-7.77,111.483-8.111c0.285-0.029,0.57-0.057,0.825-0.142L1125.33,632.859z M899.376,627.907h-0.427
		c-6.773,0-21.118-4.525-37.569-10.701c-1.451,3.899-3.613,9.677-6.858,18.016c-0.228,0.569-0.456,1.138-0.712,1.765
		c21.688,1.224,80.517,4.411,109.377,4.696C938.026,634.908,909.366,627.907,899.376,627.907z M828.763,718.869
		c-0.028-0.085-0.056-0.142-0.085-0.199c-0.313-0.825-0.655-1.651-0.967-2.448l-17.134-4.525
		c-8.367,11.755-16.906,22.285-24.648,29.429c-21.118,19.411-125.371,57.691-209.133,76.618
		c11.697,4.582,27.038,10.161,35.634,10.161h3.672c72.036,0.569,126.226-9.99,160.948-31.307
		c48.299-29.685,61.734-39.191,62.445-44.229C839.75,748.981,834.455,733.299,828.763,718.869z M363.336,694.221v-7.713
		c-4.952,0.029-9.961-0.085-15.113-0.484c-20.662-1.651-31.052-8.908-36.829-14.771c-1.28,3.956-3.273,7.685-5.977,10.844
		c-8.538,9.904-21.232,13.007-34.637,15.568c-1.48,0.284-3.273,0.598-5.209,0.797c14.686,14.544,35.349,28.917,61.819,32.844
		c0.34,0.057,0.682,0.142,0.996,0.256l34.979-36.914C363.366,694.506,363.336,694.364,363.336,694.221z M228.629,668.265
		c-0.454-0.882-0.625-1.85-0.568-2.789c-0.285-0.057-0.57-0.085-0.882-0.142c0.028,0.37,0.028,0.768-0.029,1.138l-5.948,44.656
		c1.907,7.685,16.45,60.139,53.99,70.982h25.332c0.228-10.36,1.565-19.894,1.821-21.602c0.029-0.028,0.029-0.085,0.057-0.142
		c0.086-0.455,0.228-0.911,0.399-1.309c0.057-0.114,0.086-0.228,0.142-0.313c0.257-0.455,0.542-0.882,0.855-1.252
		c0.028,0,0.028-0.029,0.057-0.057l15.255-16.081C259.537,728.773,229.91,670.826,228.629,668.265z"/>
	<path fill="#FFF9D5" d="M1056.312,730.424c-1.993,5.977-28.689,28.746-34.211,31.535c-19.41,5.151-47.844,11.242-74.882,16.963
		c-17.987,3.785-55.356,3.444-77.699,3.273c-4.298-0.057-8.083-0.085-11.157-0.085c-10.018,0-23.594-0.939-34.126-1.793
		c22.342-14.857,25.558-19.61,26.527-26.327c0.767-5.351-3.815-19.325-8.226-31.08c14.97,0.683,46.847,1.907,81.569,1.907
		c40.473,0,84.786-1.651,110.572-7.827c7.6-1.822,14.942-3.757,22.03-5.721C1057.137,718.3,1057.279,726.61,1056.312,730.424z
		 M371.505,702.617l-51.629,54.446c82.026,9.25,176.546,2.561,233.098-3.33C470.664,741.069,389.777,709.96,371.505,702.617z
		 M779.667,582.369c-1.479-0.683-2.504-1.907-2.988-3.33c-0.541-0.142-1.081-0.341-1.594-0.655
		c-2.703-1.622-3.558-5.123-1.936-7.798c3.331-5.522,3.416-13.206,0.2-19.098c-3.188-5.892-9.506-10.104-16.451-10.986
		c-1.451-0.199-1.934-0.029-1.964-0.029c-0.285,0.313-0.824,2.106-0.996,2.704c-1.707,5.578-3.471,11.385-3.187,16.849
		c0.256,5.095,2.561,9.506,5.92,11.271c1.195,0.655,2.078,1.679,2.561,2.875c8.338,5.607,32.644,22.342,40.159,30.624
		c0.029,0.029,0.057,0.057,0.085,0.085c0.029,0.029,0.029,0.057,0.058,0.057l0.796,0.882c8.481,9.506,24.277,27.209,20.947,49.693
		c-1.85,12.295-21.317,36.487-55.016,58.943c-28.09,18.699-74.397,41.61-135.532,44.428c-8.511,0.37-17.277,0.342-26.156,0
		c-7.6,1.139-97.338,14.117-194.476,14.117c-32.532,0-65.831-1.48-97.167-5.322c-1.024,9.307-1.964,24.391,0.484,32.019
		c3.273,10.36,21.147,10.901,24.705,10.901c1.793,0,5.378,0.398,13.291,1.309c28.717,3.302,105.022,12.068,172.56,3.814
		c81.627-9.961,230.081-60.736,254.245-82.965c7.799-7.201,16.593-18.272,25.159-30.624c0.143-0.199,0.257-0.398,0.399-0.569
		c14.771-21.346,28.888-46.364,36.231-61.676c0.057-0.114,0.114-0.256,0.171-0.398c1.594-3.302,2.846-6.148,3.729-8.396
		c3.244-8.368,5.437-14.174,6.83-17.988C819.884,600.897,785.702,585.186,779.667,582.369z"/>
	<path fill="#E49E48" d="M1141.782,745.679l-0.342-4.867c-1.651-24.192-2.363-34.637-9.877-35.036
		c-3.216-1.025-17.389-8.311-29.144-14.771c-0.029-0.029-0.029-0.057-0.029-0.085c-1.081-2.96-4.326-4.468-7.286-3.415
		c-11.469,4.155-17.191,5.891-34.836,10.929c-0.029,0-0.057,0.029-0.057,0.029c-0.228,0.057-0.427,0.171-0.627,0.256
		c-0.142,0.057-0.313,0.114-0.427,0.171c-0.199,0.085-0.342,0.228-0.511,0.341c-0.143,0.085-0.285,0.171-0.428,0.285
		c-0.142,0.114-0.256,0.256-0.397,0.37c-0.114,0.142-0.257,0.256-0.371,0.398s-0.227,0.313-0.313,0.455
		c-0.114,0.142-0.228,0.285-0.313,0.455c-0.086,0.142-0.143,0.342-0.228,0.512c-0.057,0.171-0.143,0.313-0.199,0.484
		c-0.058,0.171-0.058,0.342-0.114,0.512c-0.029,0.199-0.086,0.37-0.114,0.569v0.456c0,0.228-0.029,0.455,0,0.683v0.085
		c0.739,7.258,1.451,20.748,0.142,25.928c-1.993,5.977-28.689,28.746-34.211,31.535c-21.716,5.749-54.731,12.722-84.444,18.955
		c-52.881,11.128-62.7,13.576-65.746,16.251c-0.142,0.114-0.285,0.256-0.427,0.398c-22.342,24.05-23.396,28.12-23.736,29.429
		l-0.257,1.11c-1.024,4.127-2.931,11.783-7.029,17.618c-1.594,0.37-7.713-3.586-10.73-8.851
		c-6.005-10.502-33.414-20.947-41.695-23.908c-8.966-3.216-9.307-6.973-9.307-7.115c0.085-1.053-0.114-2.163-0.655-3.159
		c-1.509-2.761-4.981-3.785-7.742-2.277c-32.503,17.731-88.116,27.494-156.622,27.494h-1.281c-10.217,0-30.026-7.912-41.866-12.637
		c-10.531-4.184-12.865-5.095-15.398-4.611c0,0,0,0-0.028,0c-0.029,0-0.029,0-0.029,0c-4.496,0.854-9.961,1.85-15.483,2.761
		c-5.521,0.911-11.043,1.736-15.654,2.305c-67.539,8.254-143.843-0.512-172.56-3.814c-7.913-0.911-11.498-1.309-13.291-1.309
		c-19.467,0-28.518-7.258-28.518-22.797c0-3.131-2.533-5.692-5.692-5.692h-28.718c-37.54-10.844-52.084-63.298-53.99-70.982
		l5.948-44.656c0.171-1.252-0.085-2.448-0.655-3.472c0.57-1.081,0.855-2.334,0.627-3.643c-0.541-3.102-3.444-5.18-6.575-4.668
		c-6.746,1.167-11.498,5.721-15.312,9.392c-4.469,4.298-6.575,5.948-9.307,5.322c-3.103-0.74-4.811-4.468-7.258-10.474
		c-2.504-6.176-5.35-13.149-12.153-16.764c-2.703-1.452-5.521-2.021-8.026-2.505c-2.249-0.455-4.212-0.854-5.38-1.736
		c-1.736-1.338-2.192-1.793-2.276-1.935c-0.171-0.427-0.314-2.22-0.399-3.643c-0.228-3.131-2.931-5.493-6.091-5.294
		c-0.625,0.057-1.223,0.228-1.764,0.455c-0.257,0-0.513-0.029-0.769,0c-27.238,2.419-68.82,6.091-71.808,6.148
		c-0.114,0-0.2,0.028-0.314,0.028h-0.285c-0.085,0-0.17,0.029-0.227,0.057c-8.994,0.996-12.096,15.483-12.837,20.008
		c-1.053,6.432,5.92,89.796,8.083,115.211c0.143,1.651,0.996,3.159,2.335,4.127c4.069,2.931,100.155,71.979,172.305,98.391
		c59.142,21.659,104.652,30.539,119.282,33.072c0,9.791,1.109,27.01,8.167,33.044c7.058,6.062,53.024,31.677,133.542,36.971
		c8.48,0.569,17.36,0.825,26.496,0.825c68.138,0,150.617-14.06,188.386-20.521c3.841-0.655,7.285-1.224,10.245-1.736
		c14.089-2.334,29.116-6.176,43.631-9.904c23.082-5.891,46.961-11.954,65.119-11.385c34.865,1.167,57.378-1.907,77.7-10.616
		c12.495-5.351,37.483-12.438,61.675-19.297c16.593-4.724,33.755-9.591,47.73-14.088c35.406-11.47,82.082-41.468,97.138-58.659
		C1146.051,808.75,1141.951,748.241,1141.782,745.679z M778.729,805.989c-0.029,0.142-0.029,0.256-0.029,0.256h-0.028
		C778.7,806.16,778.7,806.074,778.729,805.989z M59.911,417.265c-1.822-3.017-3.729-6.148-5.521-7.77
		c-2.078-1.879-7.6-6.916-1.85-106.531c0-0.114,0.028-0.228,0.056-0.313c0-0.199-0.028-0.37,0-0.541
		c0.769-6.916,8.255-11.868,12.58-12.352c4.07-0.512,295.201-36.687,325.115-42.663c31.563-6.318,322.494-22.484,336.838-22.484
		c18.102,0,159.981,11.015,201.08,23.651c21.374,6.575,62.33,20.492,95.231,32.389c67.993,24.534,69.076,27.807,70.242,31.279
		c0.37,1.11,0.627,2.618,0.399,4.383l4.981,123.323c0.057,1.765-0.682,3.472-2.021,4.611c-1.081,0.882-26.441,22.057-54.418,33.442
		c-21.317,8.681-48.384,10.274-74.597,11.84c-8.993,0.512-17.476,1.025-25.7,1.793c-16.679,1.565-48.783,1.281-79.835,1.025
		c-29.144-0.228-59.284-0.484-70.526,0.996c-11.612,1.509-27.18,6.689-43.688,12.21c-15.738,5.237-33.556,11.185-51.458,15.17
		c-30.083,6.689-98.618,4.696-135.447,3.643c-8.737-0.256-15.654-0.455-19.41-0.455c-8.055,0-20.607,2.391-35.122,5.18
		c-18.386,3.501-41.297,7.912-64.294,9.051c-1.195,0.057-2.419,0.086-3.642,0.086c-41.327,0-100.184-32.787-107.812-37.17
		c-2.419-0.342-10.416,0.057-16.878,0.37c-11.44,0.569-24.419,1.195-32.473,0.029c-9.222-1.309-76.077-24.904-155.94-53.308
		c-26.555-9.449-51.657-18.357-54.106-19.012C66.513,428.108,63.298,422.843,59.911,417.265z"/>
	<path fill="#FED7B0" d="M1054.055,339.594c-25.604,6.4-150.767,16.558-166.89,17.455c-9.35,0.518-13.433,2.936-20.84,7.324
		c-5.442,3.224-12.216,7.236-23.141,11.607c-27.113,10.845-250.829,26.948-299.071,27.875c-10.145,0.196-22.338,0.322-35.593,0.322
		c-47.236,0-108.044-1.616-138.549-7.548c-19.884-3.866-87.396-21.566-152.685-38.681c-56.7-14.864-110.257-28.905-131.3-33.581
		c-15.014-3.337-34.812-9.274-33.386-22.258c0.759-6.903,8.241-11.854,12.577-12.349c4.069-0.504,295.202-36.676,325.112-42.659
		c31.563-6.313,322.505-22.492,336.838-22.492c18.094,0,159.984,11.008,201.072,23.651c21.388,6.58,62.337,20.504,95.254,32.387
		c67.987,24.542,69.077,27.814,70.23,31.277c0.625,1.878,0.976,4.836-0.906,8.266
		C1087.664,329.504,1068.897,335.882,1054.055,339.594z M1131.642,705.783c-3.11-0.931-17.549-8.366-29.437-14.881
		c-0.053-0.029-0.11-0.042-0.163-0.069c-0.161-0.082-0.328-0.145-0.496-0.211c-0.186-0.073-0.37-0.15-0.559-0.202
		c-0.151-0.042-0.307-0.064-0.463-0.094c-0.207-0.039-0.413-0.082-0.621-0.098c-0.158-0.013-0.318-0.003-0.479-0.002
		c-0.206,0.002-0.411,0-0.616,0.024c-0.161,0.019-0.323,0.059-0.484,0.092c-0.206,0.042-0.41,0.085-0.609,0.149
		c-0.05,0.016-0.103,0.019-0.153,0.037c-5.828,2.073-10.353,2.738-16.084,3.58c-5.673,0.834-12.102,1.779-21.182,4.314
		c-0.032,0.009-0.06,0.026-0.092,0.036c-0.194,0.057-0.372,0.141-0.557,0.218c-0.164,0.069-0.336,0.127-0.49,0.21
		c-0.167,0.088-0.316,0.2-0.47,0.304c-0.154,0.102-0.314,0.195-0.456,0.311c-0.139,0.113-0.256,0.246-0.384,0.371
		c-0.132,0.131-0.272,0.254-0.392,0.397c-0.12,0.143-0.214,0.303-0.318,0.457c-0.099,0.146-0.207,0.285-0.292,0.439
		c-0.093,0.169-0.16,0.35-0.235,0.528c-0.067,0.159-0.146,0.311-0.199,0.476c-0.054,0.172-0.082,0.353-0.121,0.531
		c-0.04,0.186-0.09,0.369-0.113,0.56c-0.018,0.161-0.01,0.327-0.014,0.491c-0.006,0.216-0.018,0.43,0.001,0.648
		c0.003,0.029-0.003,0.058,0,0.088c0.748,7.274,1.445,20.76,0.156,25.924c-2.018,6.015-28.898,28.911-34.284,31.583
		c-2.81,0.967-4.425,3.966-3.633,6.876c0.689,2.532,2.985,4.2,5.489,4.2c0.495,0,0.998-0.067,1.498-0.203
		c0.27-0.073,0.634-0.232,1.048-0.437c0.55,0.175,1.127,0.276,1.718,0.276c0.556,0,1.12-0.083,1.676-0.256
		c37.114-11.418,59.997-21.788,74.202-33.623c12.213-10.178,24.428-20.418,24.428-20.418l-2.089-2.49
		c2.778,1.096,3.843,1.217,4.515,1.217c0.081,0,0.158-0.003,0.231-0.003c3.144-0.064,5.64-2.663,5.578-5.806
		C1136.643,708.438,1134.441,706.095,1131.642,705.783z M222.852,654.08c-6.559,1.117-11.549,5.487-15.951,9.339
		c-4.786,4.186-7.874,6.701-10.987,5.97c-3.088-0.731-4.8-4.442-7.252-10.465c-2.507-6.165-5.35-13.155-12.138-16.76
		c-2.718-1.448-5.537-2.012-8.021-2.513c-2.265-0.453-4.219-0.845-5.389-1.729c-0.978-0.742-1.873-1.351-2.679-1.898
		c-2.31-1.57-2.31-1.57-2.426-3.255c-0.001-0.018-0.008-0.034-0.008-0.052c-0.003-0.02,0.001-0.039,0-0.059
		c-0.018-0.199-0.074-0.383-0.111-0.574c-0.032-0.165-0.049-0.335-0.094-0.494c-0.065-0.228-0.163-0.438-0.254-0.652
		c-0.054-0.125-0.093-0.258-0.157-0.379c-0.111-0.215-0.25-0.408-0.386-0.605c-0.072-0.104-0.132-0.217-0.211-0.316
		c-0.135-0.17-0.295-0.317-0.447-0.47c-0.107-0.106-0.203-0.223-0.318-0.32c-0.128-0.109-0.274-0.196-0.413-0.294
		c-0.163-0.116-0.32-0.24-0.496-0.339c-0.1-0.056-0.211-0.094-0.315-0.144c-0.229-0.111-0.457-0.223-0.702-0.304
		c-0.079-0.026-0.165-0.036-0.246-0.058c-0.277-0.078-0.555-0.149-0.845-0.185c-0.115-0.014-0.236-0.005-0.354-0.012
		c-0.238-0.014-0.473-0.04-0.716-0.024c-0.019,0.001-0.036,0.008-0.054,0.009c-0.019,0.001-0.038-0.003-0.057-0.001
		c-27.236,2.44-68.838,6.09-71.815,6.145c-0.101,0.002-0.195,0.028-0.295,0.035c-0.101,0.007-0.2-0.006-0.303,0.006
		c-0.1,0.012-0.189,0.048-0.286,0.065c-0.176,0.031-0.347,0.07-0.517,0.117c-0.21,0.057-0.411,0.123-0.609,0.201
		c-0.133,0.054-0.263,0.112-0.392,0.176c-0.214,0.105-0.42,0.22-0.618,0.351c-0.099,0.065-0.193,0.133-0.286,0.204
		c-0.203,0.152-0.393,0.314-0.574,0.491c-0.076,0.076-0.15,0.154-0.222,0.234c-0.172,0.19-0.332,0.388-0.478,0.6
		c-0.061,0.089-0.117,0.18-0.174,0.272c-0.133,0.22-0.252,0.445-0.354,0.682c-0.044,0.101-0.083,0.202-0.121,0.306
		c-0.09,0.245-0.164,0.493-0.22,0.751c-0.024,0.108-0.042,0.216-0.06,0.326c-0.04,0.263-0.063,0.529-0.067,0.801
		c0,0.059-0.015,0.115-0.014,0.175c0.001,0.065,0.019,0.126,0.022,0.19c0.007,0.134-0.008,0.264,0.008,0.399
		c0.139,1.128,1.726,11.276,14.842,19.467c3.313,2.068,9.814,7.049,17.341,12.816c17.844,13.666,40.051,30.679,52.139,34.457
		c15.509,4.845,59.482,29.784,59.924,30.037c0.889,0.503,1.854,0.742,2.807,0.742c0.73,0,1.434-0.185,2.107-0.454
		c0.167-0.05,0.334-0.081,0.498-0.147c2.916-1.173,4.328-4.489,3.155-7.407c-3.544-8.808-5.456-15.918-6.073-18.391l5.962-44.668
		c0.097-0.726,0.04-1.434-0.125-2.105c1.769-1.218,2.781-3.379,2.396-5.636C228.892,655.637,225.956,653.552,222.852,654.08z"/>
	<path fill="#B3D787" d="M1138.564,510.077c-0.028,0.114-0.085,0.313-0.171,0.569c-1.366,1.651-7.57,5.607-11.697,8.254
		c-0.427,0.256-0.826,0.512-1.224,0.768c-1.024,0.085-2.021,0.427-2.931,1.082c-0.682,0.512-1.224,1.167-1.594,1.879
		c-2.732,1.793-5.378,3.614-7.713,5.436c-4.44,3.501-11.328,3.757-18.614,4.041c-4.525,0.171-9.221,0.341-13.661,1.338
		c-5.35,1.167-15.711,0.626-25.729,0.114c-7.4-0.37-14.486-0.74-20.322-0.512c0.285-0.626,0.598-1.252,0.855-1.907
		c0.511-1.224,0.995-2.362,1.508-2.932c1.252-1.395,4.554-1.366,7.941-1.366c1.85,0,3.756,0,5.663-0.199
		c8.652-0.854,16.451-6.973,20.294-15.91c2.532-5.835,3.045-12.068,1.622-17.617c5.152-0.797,10.274-1.85,15.341-3.017
		c0.882,1.936,2.789,3.273,5.066,3.273c0.029,0,3.102,0.228,8.538,3.33c0.967,0.541,1.879,1.11,2.789,1.651
		c6.034,3.586,12.295,7.315,25.672,9.221C1136.06,508.398,1138.024,509.65,1138.564,510.077z M986.525,531.366l-1.394-1.565
		c-2.05-2.305-3.986-4.468-6.148-5.607c-4.297-2.249-9.847-0.825-16.251,0.854c-3.444,0.882-7.001,1.793-10.645,2.192
		c-10.16,1.082-19.495-2.078-28.546-5.151c-7.428-2.505-14.429-4.924-21.489-4.781c-4.895,0.057-9.875,1.366-15.169,2.732
		c-1.138,0.313-2.306,0.598-3.445,0.911c-1.878,0.455-3.813,0.825-5.692,1.252c10.759,3.273,23.168,6.916,35.805,9.791
		c13.776,3.159,23.453,6.688,31.223,9.563c12.58,4.611,19.496,7.144,32.475,4.44c7.627-1.594,14.486-3.33,20.747-5.009
		C994.066,538.652,990.225,535.464,986.525,531.366z M682.757,576.107c-4.639,2.305-10.189,4.041-16.053,3.301
		c-5.492-0.683-10.758-4.07-13.746-8.823c-2.533-4.013-3.16-8.538-1.765-12.722c0.484-1.48,1.167-2.732,1.765-3.814
		c0.397-0.712,0.967-1.793,1.024-2.192c-0.057,0-0.798-1.167-4.953-2.59l-25.018-8.51c-6.005-2.049-13.376-3.956-17.02-0.626
		c-3.016,2.761-2.931,8.738-2.618,14.088c0.029,0.683,0.114,1.793,0.256,2.106c0.826,0.484,4.497,0,6.433-0.256
		c1.537-0.199,3.017-0.398,4.44-0.484c5.692-0.341,11.612,1.822,16.194,5.948c4.554,4.098,7.314,9.762,7.571,15.483
		c0.256,5.721-1.993,11.612-6.148,16.109c-4.184,4.497-9.847,7.201-15.597,7.372c-1.167,0.028-2.39,0-3.644-0.029
		c-1.593-0.029-4.439-0.114-5.464,0.256c0.057,0.712,0.684,2.277,1.053,3.273c0.541,1.366,1.138,2.903,1.509,4.582
		c2.076,9.307-3.843,18.813-15.825,25.473c-14.83,8.197-31.621,12.295-48.584,11.783c-11.669-0.342-19.752-3.558-24.76-9.848
		c-7.856-9.876-4.867-23.794,2.105-32.474c1.936-2.362,4.098-4.411,6.433-6.261c0-0.029,0-0.029,0-0.029
		c0.199-3.444-3.701-6.688-7.315-7.457c-5.122-1.082-11.015,0.854-15.597,2.647c-3.528,1.395-7.143,3.017-9.535,5.578
		c-1.934,2.049-2.817,4.838-2.162,6.745c0.513,1.48,0.37,2.988-0.228,4.298c-0.085,2.618-0.598,5.294-1.565,7.855
		c-1.594,4.241-4.184,7.485-7.429,9.364c-4.667,6.29-13.12,9.278-20.776,7.087c-8.226-2.362-14.117-10.274-13.975-18.813
		c0.057-2.875,0.741-5.436,1.338-7.742c0.37-1.366,0.712-2.675,0.853-3.899c0.57-4.241-1.337-8.624-4.554-10.417
		c-1.508-0.854-3.528-1.053-5.378-0.512c-0.882,0.256-2.476,0.911-3.302,2.391c-1.451,2.619-0.655,6.404,0.228,10.787
		c0.625,2.96,1.252,6.005,1.309,9.25c0.142,6.916-2.903,13.861-8.31,19.041c-5.407,5.151-12.466,7.884-19.382,7.428
		c-3.33-0.228-6.347-1.025-9.279-1.822c-3.016-0.825-5.891-1.622-8.452-1.452c-2.988,0.199-6.119,1.708-9.478,3.302
		c-3.813,1.822-8.14,3.899-13.092,4.354c-6.005,0.512-11.811-1.366-16.963-3.017c-6.744-2.191-11.072-3.415-14.288-1.252
		c-1.366,0.911-2.532,2.533-3.927,4.412c-0.769,1.081-1.537,2.135-2.363,3.159c-5.152,6.148-12.664,9.99-20.548,10.901
		c3.841,4.81,11.015,13.491,32.958,15.227c12.01,0.968,23.679,0.37,34.95-0.228c19.667-1.025,38.224-1.964,53.707,6.119
		c9.022,4.696,16.108,10.246,22.398,15.141c9.421,7.343,16.878,13.149,26.839,13.149c18.585,0,37.91-10.986,46.393-17.475
		c6.659-5.094,23.139-13.035,37.653-20.037c8.795-4.241,17.106-8.225,20.862-10.502c3.473-2.078,6.604-5.55,10.531-9.961
		c6.005-6.688,13.433-14.999,26.099-22.598c9.108-5.465,15.54-7.998,20.721-10.047c6.659-2.647,10.701-4.241,16.849-10.417
		c7.969-7.998,16.564-20.521,21.203-27.607C685.546,579.181,683.982,577.758,682.757,576.107z M1104.24,458.249
		c-1.565-3.415-5.236-6.603-8.68-6.062c-2.221,0.37-4.355-0.655-5.578-2.419c-9.592,7.258-27.836,19.98-47.36,27.921
		c-21.317,8.681-48.384,10.274-74.597,11.84c-8.993,0.512-17.476,1.025-25.7,1.793c-16.679,1.565-48.783,1.281-79.835,1.025
		c-19.752-0.142-39.96-0.313-54.446,0.057c0.996,1.594,1.907,3.216,2.761,4.81c2.162,3.928,4.212,7.628,6.972,10.303
		c4.725,4.639,12.267,6.916,23.481,7.087c1.964-1.252,4.582-1.338,9.592-0.256c10.046-0.541,20.065-2.021,29.827-4.44
		c1.11-0.285,2.221-0.569,3.33-0.882c5.692-1.48,11.585-3.017,17.902-3.102c9.079-0.171,17.248,2.675,25.273,5.379
		c8.255,2.789,16.023,5.436,23.681,4.611c2.846-0.313,5.834-1.082,9.022-1.907c7.599-1.935,16.194-4.155,24.363,0.085
		c4.012,2.106,6.887,5.322,9.392,8.168l1.309,1.452c5.266,5.806,10.588,9.278,15.797,10.303c5.549,1.11,11.412-1.11,13.575-5.151
		c0.342-0.655,0.656-1.395,0.939-2.106c0.769-1.85,1.737-4.184,3.587-6.205c4.668-5.123,11.127-5.123,16.393-5.094
		c1.651,0,3.16,0,4.497-0.142c5.437-0.541,9.25-5.066,10.986-9.108c1.765-4.041,2.449-9.904-0.881-14.231
		c-1.224-1.651-1.509-3.814-0.684-5.692c0.798-1.907,2.561-3.216,4.611-3.444c14.231-1.565,28.518-5.294,42.35-8.965
		C1106.319,468.182,1106.29,462.689,1104.24,458.249z M803.462,541.583c-0.428-1.224-1.053-2.562-1.708-4.013
		c-2.135-4.611-4.782-10.36-2.021-16.593c0.454-1.053,1.024-1.935,1.48-2.675c0.256-0.398,0.625-0.968,0.712-1.195
		c-0.057-0.256-0.541-1.252-1.48-2.789l-8.568-13.747c-0.682-1.082-1.337-1.822-1.793-2.22c-1.138,0.342-2.333,0.313-3.444-0.057
		c-1.537-0.541-2.789-1.679-3.416-3.188l-0.056-0.142c-10.189,2.362-22.258,6.375-34.894,10.588
		c-15.738,5.237-33.556,11.185-51.458,15.17c-30.083,6.689-98.618,4.696-135.447,3.643c-5.835-0.171-10.844-0.313-14.63-0.398
		c4.782,2.419,8.908,6.091,11.64,10.815c1.197,2.049,0.996,4.639-0.511,6.489c-3.33,4.041-3.131,5.664-3.102,5.692
		c0.739,0.455,3.727,0.085,5.521-0.114c3.073-0.37,6.575-0.768,10.018,0.029c5.095,1.167,8.965,4.696,10.872,9.905
		c2.59,7.03,1.138,16.337-3.501,22.627c-6.546,8.766-16.792,13.804-24.278,17.475c-7.768,3.785-15.682,7.656-20.605,13.775
		c-4.098,5.095-6.005,13.291-2.078,18.244c2.76,3.472,8.196,5.322,16.194,5.578c14.913,0.427,29.686-3.159,42.721-10.388
		c5.407-2.988,11.298-8.197,10.245-13.064c-0.199-0.797-0.598-1.822-0.995-2.875c-1.281-3.245-3.017-7.685-0.741-12.438
		c3.359-7.002,11.015-6.774,16.053-6.632c1.024,0.029,2.021,0.057,2.96,0.029c2.732-0.086,5.492-1.423,7.599-3.728
		c2.135-2.277,3.273-5.151,3.131-7.855c-0.114-2.704-1.509-5.464-3.815-7.542c-2.304-2.078-5.179-3.188-7.912-3.045
		c-1.138,0.085-2.362,0.256-3.587,0.398c-5.549,0.74-13.946,1.85-17.958-5.635c-1.338-2.448-1.481-4.952-1.594-6.802
		c-0.342-5.778-0.969-16.508,6.29-23.167c9.079-8.311,22.598-3.728,28.347-1.765l25.045,8.51
		c8.253,2.818,12.523,7.229,12.666,13.121c0.057,3.33-1.366,5.948-2.392,7.855c-0.427,0.768-0.796,1.48-0.995,2.021
		c-0.37,1.138,0.142,2.277,0.625,3.045c1.167,1.879,3.387,3.33,5.494,3.586c5.293,0.655,11.072-2.761,14.97-5.379
		c1.993-1.366,4.64-1.309,6.575,0.142c1.936,1.452,2.761,3.985,2.021,6.29c0.086,0.114,0.826,1.025,1.851,1.423
		c1.593,0.655,3.756,0.768,6.033,0.882c1.053,0.057,2.135,0.085,3.188,0.199c6.119,0.569,11.697,2.533,17.077,4.44
		c3.701,1.281,7.172,2.505,10.702,3.273c5.264,1.11,11.611,0.569,15.483-2.163c-3.872-4.184-6.291-10.104-6.604-16.622
		c-0.399-7.457,1.765-14.515,3.644-20.748c0.739-2.448,1.992-6.546,5.806-8.994c3.33-2.135,7.029-1.964,9.506-1.651
		c10.502,1.338,20.065,7.798,25.018,16.849c4.383,8.055,4.867,17.902,1.565,26.213c0.143,0.057,0.285,0.142,0.427,0.199
		c0.2-0.199,0.371-0.398,0.598-0.569c5.295-4.042,10.787-8.482,14.431-14.06C803.889,552.399,805.027,546.336,803.462,541.583z
		 M570.506,560.71c-0.855-2.305-2.249-2.619-2.761-2.761c-1.508-0.342-3.841-0.057-6.09,0.199
		c-4.896,0.598-12.296,1.452-16.479-5.038c-2.021-3.159-3.245-8.282,1.252-15.454c-4.611-4.867-12.267-6.973-18.585-4.668
		c-1.167,0.427-1.452,0.712-1.481,0.74c-0.37,0.456-0.114,3.131,0,4.298c0.029,0.541,0.086,1.082,0.114,1.594
		c0.513,6.945-1.366,13.121-5.293,17.475c-5.236,5.749-13.804,7.315-19.98,3.558c-1.281-0.768-2.276-1.622-3.159-2.391
		c-0.627-0.569-1.309-1.138-1.708-1.338c-0.91-0.399-2.903,0.996-4.867,3.614c3.188,3.074,6.917,7.742,7.514,13.178
		c0.399,3.615-0.655,6.945-3.074,9.648c-1.224,1.366-2.561,2.277-3.672,3.017c-0.598,0.398-1.167,0.768-1.452,1.053
		c-0.484,0.484-0.682,1.252-0.653,2.249c3.87-3.871,8.794-6.148,13.148-7.884c6.034-2.362,14.032-4.895,22.144-3.159
		c6.204,1.338,12.409,5.863,15.027,12.039c2.618-1.423,5.266-2.732,7.827-3.985c8.454-4.127,15.74-8.026,20.236-14.088
		C570.905,569.39,571.758,564.182,570.506,560.71z M517.112,527.125c-3.273,0.626-6.716,1.281-10.274,1.964
		c-18.386,3.501-41.297,7.912-64.294,9.051c-1.195,0.057-2.419,0.086-3.642,0.086c-41.327,0-100.184-32.787-107.812-37.17
		c-2.419-0.342-10.416,0.057-16.878,0.37c-11.44,0.569-24.419,1.195-32.473,0.029c-9.222-1.309-76.077-24.904-155.94-53.308
		c-10.274-3.643-20.322-7.229-28.917-10.275c-0.541,0.655-1.195,1.224-2.021,1.594c-6.261,2.846-9.704,11.271-7.229,17.675
		c0.371,0.996,0.912,2.049,1.48,3.159c1.566,3.131,3.501,6.973,3.16,11.584c-0.114,1.793-0.57,3.33-0.939,4.668
		c-0.257,0.911-0.513,1.765-0.542,2.362c-0.113,1.736,1.509,3.871,3.331,6.347c1.907,2.561,4.098,5.465,5.179,9.079
		c0.912,3.017,0.882,5.92,0.882,8.51c-0.029,1.48-0.029,2.875,0.142,4.07c0.769,5.265,5.58,9.904,10.219,14.401l1.138,1.11
		c27.978,27.294,45.623,65.347,48.355,104.339c0.314,4.383,0.656,9.335,3.074,11.157c1.167,0.882,3.131,1.281,5.38,1.736
		c2.504,0.484,5.323,1.053,8.026,2.505c6.803,3.614,9.649,10.587,12.153,16.764c2.447,6.005,4.155,9.734,7.258,10.474
		c3.102,0.712,6.176-1.793,10.986-5.977c4.383-3.871,9.392-8.225,15.939-9.335c9.563-1.622,18.13,4.525,22.94,10.872
		c2.589,3.387,4.525,7.03,6.404,10.531c1.394,2.619,2.732,5.095,4.24,7.372c0.853,1.281,2.164,3.045,3.587,3.757
		c1.991,0.996,5.093,0.512,8.651-0.142c11.756-2.248,21.973-4.696,28.121-11.811c4.012-4.668,5.749-11.328,4.497-17.362
		c-0.143-0.655-0.143-1.281-0.057-1.878c-0.484-1.139-0.627-2.419-0.314-3.7c0.798-3.045,3.9-4.867,6.974-4.07
		c7.115,1.878,15.369-0.768,20.065-6.432c0.684-0.797,1.309-1.651,1.936-2.505c1.736-2.419,3.729-5.151,6.773-7.201
		c7.998-5.379,16.565-2.59,24.164-0.142c4.468,1.48,8.737,2.875,12.381,2.505c2.931-0.256,6.005-1.736,9.25-3.273
		c3.955-1.907,8.481-4.07,13.661-4.383c4.44-0.284,8.538,0.826,12.153,1.822c2.504,0.655,4.838,1.309,7.031,1.452
		c3.727,0.228,7.684-1.338,10.787-4.326c3.102-2.96,4.867-6.831,4.781-10.588c-0.028-2.163-0.541-4.582-1.053-7.144
		c-1.195-5.778-2.532-12.295,0.912-18.585c2.105-3.785,5.72-6.575,10.16-7.855c4.81-1.366,9.932-0.797,14.089,1.537
		c7.228,4.07,11.441,13.035,10.274,21.858c-0.256,1.907-0.712,3.615-1.138,5.294c-0.485,1.822-0.939,3.529-0.969,5.009
		c-0.056,3.33,2.506,6.774,5.721,7.713c3.188,0.911,7.172-0.683,8.908-3.529c0.655-1.081,1.622-1.907,2.789-2.391
		c0.967-0.37,2.05-1.793,2.732-3.615c1.195-3.188,1.026-6.461,0.2-8.054c-2.647-5.18-8.88-17.305-0.768-25.416
		c1.081-1.082,2.247-1.878,3.187-2.505c0.598-0.398,1.254-0.825,1.509-1.11c0.228-0.256,0.285-0.427,0.256-0.826
		c-0.228-1.907-2.732-5.55-6.974-8.595c-2.304-1.651-3.045-4.725-1.736-7.229c5.806-11.242,14.231-16.081,22.001-12.608
		c1.965,0.882,3.416,2.135,4.554,3.131c0.598,0.512,1.138,0.996,1.566,1.252c1.451,0.882,4.155,0.171,5.634-1.48
		c1.794-1.964,2.677-5.265,2.392-8.994l-0.114-1.395C514.694,535.664,514.324,531.081,517.112,527.125z"/>
	<path fill="#7B9E58" d="M1089.555,543.747c-1.509,1.195-2.96,2.248-4.184,3.074c-1.053,0.683-26.867,17.077-103.4,24.733
		c-63.012,6.29-154.402-41.667-169.628-49.95c0.256-0.569,0.484-1.167,0.625-1.821c0.114-0.456,0.171-0.882,0.2-1.309
		c9.476,6.888,21.914,7.628,30.765,7.542h0.228c0.029,0,0.029,0,0.029,0c1.878-0.029,3.756-0.142,5.606-0.228
		c4.497,1.11,11.385,3.216,17.704,5.18c12.352,3.785,27.693,8.51,43.517,12.125c13.063,2.988,22.37,6.404,29.827,9.136
		c9.476,3.472,17.02,6.262,26.612,6.262c3.672,0,7.627-0.398,12.124-1.338c10.815-2.277,20.094-4.782,28.263-7.03
		c9.307-2.533,17.332-4.724,24.078-5.465c5.578-0.626,14.288-0.171,22.74,0.285c11.243,0.569,21.916,1.139,28.746-0.398
		C1085.313,544.145,1087.391,543.917,1089.555,543.747z M1124.676,533.814c-1.565,1.082-3.074,2.163-4.383,3.188
		c-3.415,2.675-7.286,4.184-11.271,5.066c-0.199,0.256-0.399,0.484-0.655,0.712c-0.427,0.398-10.559,9.506-16.764,13.548
		c-2.903,1.907-30.567,18.756-108.493,26.554c-4.269,0.427-8.652,0.626-13.092,0.626c-59.2,0-132.26-35.605-156.993-48.612
		c0.456,0.996,0.855,2.021,1.224,3.074c2.703,8.14,1.138,17.617-4.326,26.042c-3.558,5.521-8.312,9.961-12.979,13.747
		c18.87,8.538,40.899,18.044,59.854,25.501c1.053-0.285,2.221-0.313,3.359,0.086c1.309,0.427,2.333,1.309,3.017,2.419
		c16.706,6.375,30.197,10.758,35.691,10.758h0.427c19.524,0,91.56,21.004,101.095,23.822c33.185-2.163,72.177-6.148,76.702-6.632
		l49.638-12.978c2.39-6.575,8.509-24.591,10.843-43.631C1139.561,560.766,1129.998,542.494,1124.676,533.814z M795.635,617.746
		c-4.639,5.977-12.324,15.113-19.298,20.065c-9.307,6.603-37.625,26.697-80.061,39.931c-21.574,6.717-52.71,8.054-78.439,8.054
		c-10.502,0-20.094-0.199-27.778-0.398c-6.347-0.142-12.951-0.313-14.885-0.142c-1.708,0.569-3.587,0.285-5.095-0.797
		c-11.982,5.806-24.847,12.21-29.743,15.967c-11.954,9.136-33.072,19.809-53.308,19.809c-13.889,0-23.595-7.542-33.841-15.568
		c-6.176-4.81-12.58-9.791-20.662-14.031c-12.751-6.632-29.002-5.806-47.844-4.81c-3.302,0.171-6.603,0.313-9.961,0.456v5.351
		c18.272,7.314,133.853,51.97,229.768,55.869h0.086c8.737,0.37,17.303,0.37,25.643,0c106.189-4.895,177.03-75.252,179.79-93.666
		C812.171,639.234,803.148,626.569,795.635,617.746z M754.679,584.816c-6.86,6.29-17.731,7.571-26.525,5.692
		c-4.241-0.911-8.255-2.305-12.096-3.671c-4.981-1.736-9.678-3.387-14.402-3.842c-0.825-0.085-1.651-0.114-2.476-0.142
		c-3.672,5.806-14.543,22.513-24.988,32.987c-7.827,7.855-13.804,10.218-20.721,12.95c-5.038,2.021-10.73,4.269-19.04,9.25
		c-11.186,6.717-17.703,14.003-23.481,20.435c-4.383,4.924-8.197,9.164-13.149,12.125c-1.594,0.968-3.784,2.135-6.375,3.444
		c26.099,0.626,73.288,1.594,101.464-7.172c40.699-12.694,67.908-31.99,76.846-38.337c6.005-4.269,13.519-13.291,18.016-19.183
		C779.924,602.405,764.1,591.248,754.679,584.816z"/>
	<path fill="#60361F" d="M1148.769,515.341c1.687-3.982,1.64-7.598-0.142-10.749c-2.471-4.373-7.813-7.01-16.813-8.295
		c-11.134-1.59-15.918-4.437-21.457-7.735c-0.973-0.578-1.954-1.162-2.977-1.745c-0.66-0.377-1.267-0.682-1.886-1.002
		c1.299-0.341,2.61-0.68,3.901-1.021c1.32-0.349,3.78-0.998,5.653-3.1c2.271-2.538,2.382-5.691,2.435-7.21
		c0.236-6.914,0.208-14.231-2.888-20.978c-2.721-5.937-8.634-11.429-15.643-12.548c0.083-0.428,0.118-0.867,0.1-1.311
		l-4.972-123.339c0.235-1.756-0.028-3.263-0.4-4.381c-1.153-3.463-2.243-6.735-70.23-31.277
		c-32.917-11.883-73.866-25.807-95.254-32.387c-41.088-12.644-182.978-23.651-201.072-23.651
		c-14.333,0-305.275,16.179-336.838,22.492c-29.909,5.983-321.043,42.154-325.112,42.659c-4.336,0.495-11.818,5.446-12.577,12.349
		c-0.019,0.182,0.006,0.349-0.006,0.529c-0.013,0.112-0.046,0.216-0.053,0.33c-5.751,99.615-0.225,104.637,1.857,106.528
		c1.787,1.626,3.683,4.743,5.514,7.759c3.388,5.581,6.59,10.851,11.782,11.886c0.964,0.253,5.484,1.806,12.189,4.157
		c-7.46,6.888-10.601,18.263-6.869,27.94c0.578,1.497,1.259,2.857,1.921,4.172c1.078,2.151,2.096,4.183,1.99,5.678
		c-0.042,0.592-0.284,1.43-0.539,2.318c-0.386,1.344-0.87,3.014-0.97,4.902c-0.311,5.866,2.966,10.251,5.601,13.773
		c1.479,1.975,2.871,3.84,3.388,5.545c0.414,1.373,0.4,3.113,0.386,5.128c-0.011,1.765-0.028,3.765,0.278,5.831
		c1.337,9.068,7.827,15.358,13.55,20.907l1.103,1.071c26.027,25.384,42.417,60.744,44.965,97.014
		c0.004,0.064,0.011,0.135,0.015,0.199c-27.18,2.43-65.829,5.813-68.689,5.866c-0.108,0.002-0.206,0.03-0.313,0.036
		c-0.097,0.007-0.192-0.006-0.29,0.006c-0.085,0.01-0.16,0.041-0.243,0.055c-8.994,1.01-12.085,15.472-12.823,20.007
		c-1.051,6.434,5.923,89.809,8.083,115.21c0.142,1.651,0.998,3.16,2.343,4.133c4.055,2.927,100.145,71.976,172.285,98.394
		c59.141,21.657,104.651,30.54,119.282,33.058c0.019,9.806,1.117,27.013,8.172,33.061c7.065,6.056,53.037,31.669,133.554,36.966
		c8.483,0.556,17.357,0.809,26.499,0.809c68.14,0,150.597-14.061,188.364-20.501c3.861-0.659,7.299-1.242,10.259-1.737
		c14.083-2.346,29.106-6.187,43.634-9.9c23.08-5.898,46.953-11.977,65.114-11.39c5.053,0.169,9.818,0.237,14.384,0.223
		c0.015,0,0.029,0.007,0.044,0.007c0.025,0,0.049-0.008,0.072-0.008c26.881-0.09,45.858-3.411,63.215-10.854
		c12.468-5.342,37.472-12.435,61.653-19.295c16.604-4.708,33.776-9.578,47.725-14.092c35.413-11.457,82.101-41.447,97.146-58.64
		c17.883-20.44,13.786-80.94,13.602-83.505l-0.339-4.872c-1.648-24.209-2.357-34.629-9.864-35.051
		c-2.653-0.834-12.651-5.886-22.647-11.227c15.023-5.457,24.142-9.358,24.339-9.443c2.087-0.901,3.438-2.955,3.438-5.228V626.57
		c1.862-4.867,9.392-25.504,12.166-48.063c2.463-20.054-8.565-41.112-14.63-50.928
		C1142.646,522.187,1147.221,519.008,1148.769,515.341z M1093.195,493.377c0.031,0.003,3.116,0.225,8.538,3.323
		c0.962,0.55,1.887,1.101,2.802,1.645c6.037,3.594,12.282,7.31,25.668,9.222c5.87,0.838,7.835,2.069,8.369,2.507
		c-0.031,0.129-0.083,0.315-0.183,0.571c-1.367,1.652-7.568,5.612-11.704,8.253c-0.402,0.257-0.806,0.517-1.209,0.775
		c-1.021,0.08-2.036,0.42-2.921,1.07c-0.696,0.512-1.227,1.159-1.613,1.872c-2.736,1.805-5.384,3.626-7.695,5.444
		c-4.464,3.51-11.34,3.77-18.622,4.044c-4.53,0.171-9.217,0.349-13.675,1.336c-5.342,1.177-15.695,0.642-25.713,0.122
		c-7.415-0.385-14.479-0.745-20.338-0.513c0.296-0.635,0.606-1.262,0.877-1.911c0.506-1.216,0.984-2.365,1.501-2.935
		c1.259-1.381,4.539-1.374,7.946-1.363c1.834,0.004,3.735,0.011,5.662-0.186c8.65-0.878,16.429-6.975,20.298-15.911
		c2.532-5.842,3.032-12.074,1.601-17.619c5.17-0.813,10.277-1.872,15.347-3.021C1089.014,492.033,1090.918,493.377,1093.195,493.377
		z M963.173,641.693c-28.859-0.296-87.688-3.485-109.372-4.708c0.254-0.612,0.496-1.206,0.71-1.755
		c3.242-8.338,5.427-14.138,6.861-18.028c16.469,6.189,30.797,10.705,37.568,10.705c0.145,0,0.284-0.003,0.431-0.003
		C909.358,627.904,938.024,634.921,963.173,641.693z M1056.71,711.264c0.432,7.026,0.563,15.343-0.388,19.148
		c-2.011,5.995-28.713,28.753-34.22,31.545c-19.4,5.151-47.832,11.25-74.883,16.954c-17.974,3.799-55.355,3.46-77.688,3.274
		c-4.311-0.039-8.108-0.072-11.17-0.072c-10.017,0-23.59-0.93-34.135-1.804c22.351-14.844,25.583-19.596,26.545-26.312
		c0.767-5.352-3.83-19.332-8.231-31.078c14.981,0.681,46.861,1.911,81.569,1.911c40.477,0,84.792-1.673,110.56-7.849
		C1042.267,715.158,1049.635,713.231,1056.71,711.264z M896.414,917.259c-2.877,0.609-5.856,1.136-8.961,1.579V807.991
		c0-1.555-0.627-2.961-1.637-3.989c3.035-0.782,6.842-1.689,11.223-2.688c-0.386,0.768-0.625,1.624-0.625,2.543V917.259z
		 M801.391,896.054c-3.143,0-5.692,2.549-5.692,5.692v21.363c0,1.487,0.584,2.829,1.518,3.844c-4.12,0.969-8.285,1.981-12.516,3.047
		v-43.56c0-3.143-2.549-5.692-5.692-5.692c-3.143,0-5.692,2.549-5.692,5.692v45.824c0,0.21,0.039,0.408,0.061,0.612
		c-4.35,1.111-8.716,2.202-13.091,3.272v-39.502c0-3.143-2.549-5.692-5.692-5.692s-5.692,2.549-5.692,5.692v40.707
		c0,0.487,0.081,0.952,0.195,1.404c-3.786,0.843-7.516,1.604-11.193,2.289V827.475c0-0.655-0.133-1.273-0.336-1.859
		c3.897-1.128,7.668-2.332,11.334-3.599v55.313c0,3.143,2.549,5.692,5.692,5.692s5.692-2.549,5.692-5.692V817.74
		c3.256-1.349,6.397-2.765,9.44-4.239c0.486,0.765,1.098,1.545,1.798,2.329c-1.374,1.039-2.278,2.672-2.278,4.529v48.832
		c0,3.144,2.549,5.692,5.692,5.692c3.143,0,5.692-2.549,5.692-5.692v-46.973c1.109,0.509,2.283,1.004,3.583,1.468
		c4.958,1.771,9.55,3.611,13.685,5.433c-1.33,1.042-2.2,2.644-2.2,4.464v36.92c-1.502-1.097-1.773-1.235-1.94-1.318
		c-2.816-1.409-6.232-0.261-7.635,2.549c-1.348,2.699-0.353,5.953,2.212,7.454c2.848,1.917,29.891,22.993,53.277,41.304
		c-10.662-0.031-22.391,1.702-34.821,4.326c0.172-0.543,0.29-1.11,0.29-1.709v-21.363
		C807.084,898.603,804.535,896.054,801.391,896.054z M808.693,790.327c7.297,0.732,32.822,3.169,49.668,3.169
		c3.035,0,6.798,0.033,11.07,0.072c3.398,0.029,7.163,0.06,11.127,0.082c-5.282,1.474-7.484,2.474-8.662,3.509
		c-0.142,0.128-0.281,0.261-0.409,0.4c-22.352,24.056-23.389,28.111-23.728,29.442l-0.281,1.112
		c-1.026,4.116-2.932,11.776-7.026,17.605c-1.581,0.378-7.705-3.572-10.723-8.855c-6.004-10.509-33.425-20.948-41.686-23.9
		c-4.679-1.671-7-3.494-8.158-4.881c1.035-0.601,2.112-1.18,3.119-1.798C792.989,800.152,801.458,794.897,808.693,790.327z
		 M840.474,905.141c0.108-0.438,0.182-0.889,0.182-1.36v-46.688c3.726-0.096,6.962-1.827,9.18-4.965
		c1.073-1.519,1.993-3.11,2.832-4.714v67.277C848.296,911.263,844.217,908.069,840.474,905.141z M829.272,855.869v40.517
		c-9.929-7.749-17.078-13.296-22.188-17.234v-45.568c0-0.021-0.006-0.04-0.006-0.06c7.019,3.681,11.61,6.959,12.769,8.988
		c1.858,3.253,5.537,7.696,10.043,10.827C829.508,854.103,829.272,854.955,829.272,855.869z M858.361,832.828
		c-0.115,0-0.224,0.027-0.338,0.034c0.188-0.723,0.354-1.392,0.504-1.996l0.183-0.734c1.372-2.596,9.385-11.969,17.357-20.734
		v110.661c-3.804,0.284-7.807,0.467-12.015,0.561v-82.1C864.053,835.377,861.505,832.828,858.361,832.828z M828.682,718.669
		c0.022,0.064,0.05,0.124,0.074,0.186c5.696,14.433,10.98,30.131,10.747,33.522c-0.723,5.031-14.147,14.531-62.456,44.207
		c-34.729,21.332-88.908,31.88-160.951,31.327l-3.672-0.019c-8.587,0-23.934-5.578-35.641-10.161
		c83.776-18.917,188.025-57.186,209.132-76.604c7.768-7.148,16.303-17.671,24.663-29.436l17.128,4.53
		C828.032,717.029,828.357,717.848,828.682,718.669z M675.653,951.366c-4.223,0.639-8.575,1.281-13.033,1.919v-60.696
		c0-3.144-2.549-5.692-5.692-5.692c-3.143,0-5.692,2.549-5.692,5.692v62.059c0,0.074,0.019,0.144,0.022,0.217
		c-3.623,0.491-7.295,0.975-11.018,1.449V848.843c0-3.143-2.549-5.692-5.692-5.692c-3.144,0-5.692,2.549-5.692,5.692v108.87
		c-2.297,0.272-4.608,0.538-6.929,0.799v-116.86c0-0.836-0.19-1.623-0.514-2.338c11.708-0.001,22.909-0.33,33.691-0.924
		c-2.243,0.764-3.868,2.865-3.868,5.366v24.417c0,3.144,2.549,5.692,5.692,5.692c3.144,0,5.692-2.549,5.692-5.692v-24.417
		c0-2.695-1.879-4.94-4.394-5.53c6.223-0.379,12.26-0.875,18.164-1.454c-0.454,0.818-0.737,1.746-0.737,2.748V951.366z
		 M544.609,963.803V847.139c2.728-0.284,5.377-0.572,7.946-0.864v117.483c-2.671,0.079-5.323,0.135-7.96,0.176
		C544.596,963.89,544.609,963.848,544.609,963.803z M563.94,844.903c3.153-0.402,6.156-0.802,8.961-1.193v119.12
		c-2.998,0.18-5.984,0.339-8.961,0.48V844.903z M584.285,842.036c3.035-0.471,5.688-0.904,7.946-1.285v120.688
		c-2.649,0.221-5.298,0.431-7.946,0.628V842.036z M603.406,838.234c2.753,0.545,5.343,0.893,7.698,0.992
		c-0.35,0.739-0.561,1.555-0.561,2.427v118.083c-2.304,0.236-4.611,0.464-6.926,0.685V839.685
		C603.616,839.18,603.53,838.7,603.406,838.234z M803.78,701.565c-0.149,0.181-0.274,0.38-0.4,0.581
		c-8.572,12.336-17.356,23.408-25.175,30.602c-24.159,22.227-172.597,73.021-254.22,82.977
		c-67.548,8.241-143.857-0.52-172.585-3.819c-7.913-0.906-11.49-1.309-13.294-1.309c-3.547,0-21.41-0.525-24.698-10.887
		c-2.426-7.65-1.501-22.71-0.489-32.025c31.36,3.841,64.662,5.326,97.169,5.326c97.159,0,186.901-12.992,194.482-14.119
		c8.887,0.338,17.647,0.37,26.171-0.02c61.133-2.816,107.444-25.712,135.53-44.426c33.681-22.444,53.159-46.641,54.994-58.943
		c3.349-22.474-12.455-40.171-20.943-49.677l-0.784-0.878c-0.018-0.02-0.044-0.045-0.064-0.065c-0.029-0.032-0.06-0.062-0.089-0.094
		c-7.495-8.286-31.81-25-40.143-30.628c-0.491-1.184-1.361-2.216-2.577-2.859c-3.338-1.762-5.659-6.188-5.915-11.278
		c-0.272-5.475,1.487-11.258,3.188-16.852c0.178-0.589,0.723-2.382,0.984-2.693c0.05-0.018,0.511-0.169,1.985,0.018
		c6.937,0.887,13.244,5.097,16.457,10.991c3.21,5.89,3.127,13.564-0.211,19.095c-1.626,2.69-0.762,6.19,1.932,7.814
		c0.507,0.306,1.046,0.495,1.594,0.629c0.481,1.429,1.513,2.669,2.989,3.353c6.033,2.793,40.213,18.526,71.081,30.724
		c-1.409,3.827-3.59,9.622-6.849,18.002c-0.867,2.23-2.132,5.083-3.713,8.395c-0.069,0.131-0.131,0.266-0.19,0.403
		C832.649,655.209,818.558,680.212,803.78,701.565z M275.194,782.112c-37.542-10.848-52.072-63.299-54.007-70.973l5.962-44.663
		c0.051-0.384,0.061-0.764,0.036-1.136c0.292,0.045,0.582,0.073,0.871,0.147c-0.04,0.934,0.124,1.889,0.571,2.784
		c1.273,2.547,30.921,60.49,90.466,73.087l-15.241,16.077c-0.018,0.018-0.026,0.043-0.043,0.062
		c-0.34,0.367-0.623,0.785-0.857,1.236c-0.054,0.103-0.097,0.207-0.145,0.314c-0.188,0.418-0.332,0.859-0.414,1.33
		c-0.008,0.047-0.035,0.088-0.042,0.136c-0.254,1.702-1.605,11.234-1.841,21.599H275.194z M440.964,605.132
		c-0.903-4.383-1.684-8.169-0.247-10.776c0.823-1.497,2.426-2.142,3.31-2.393c1.859-0.532,3.869-0.339,5.381,0.507
		c3.207,1.8,5.122,6.186,4.555,10.433c-0.161,1.198-0.503,2.51-0.864,3.897c-0.598,2.282-1.276,4.87-1.323,7.721
		c-0.139,8.555,5.731,16.474,13.961,18.825c7.649,2.182,16.098-0.789,20.787-7.104c3.227-1.859,5.826-5.106,7.427-9.336
		c0.97-2.564,1.469-5.255,1.555-7.873c0.61-1.299,0.738-2.825,0.229-4.287c-0.664-1.914,0.225-4.693,2.168-6.761
		c2.393-2.547,5.995-4.186,9.533-5.577c4.569-1.8,10.473-3.726,15.609-2.631c3.605,0.766,7.491,4.007,7.299,7.435
		c0,0.01,0.001,0.02,0.001,0.031c-2.322,1.853-4.51,3.903-6.425,6.277c-6.99,8.669-9.956,22.605-2.107,32.472
		c5,6.293,13.097,9.517,24.751,9.856c16.966,0.492,33.753-3.585,48.581-11.804c11.985-6.637,17.902-16.16,15.834-25.476
		c-0.372-1.67-0.976-3.21-1.506-4.569c-0.386-0.981-1.006-2.57-1.051-3.262c1.003-0.392,3.861-0.307,5.445-0.264
		c1.256,0.036,2.501,0.067,3.658,0.032c5.737-0.183,11.418-2.872,15.587-7.378c4.172-4.505,6.415-10.377,6.156-16.11
		c-0.258-5.731-3.024-11.376-7.582-15.487c-4.561-4.114-10.478-6.28-16.193-5.942c-1.404,0.082-2.902,0.275-4.419,0.477
		c-1.957,0.257-5.606,0.744-6.445,0.268c-0.147-0.328-0.214-1.443-0.256-2.101c-0.314-5.37-0.4-11.33,2.627-14.1
		c3.644-3.331,10.998-1.416,17.005,0.625l25.031,8.512c4.15,1.412,4.899,2.59,4.936,2.591c-0.038,0.384-0.623,1.464-1.012,2.179
		c-0.595,1.098-1.27,2.343-1.765,3.823c-1.398,4.183-0.77,8.704,1.765,12.731c2.991,4.749,8.255,8.124,13.736,8.808
		c5.878,0.738,11.418-0.99,16.054-3.288c1.216,1.657,2.809,3.054,4.578,4.084c-4.618,7.082-13.223,19.614-21.204,27.614
		c-6.151,6.168-10.173,7.763-16.838,10.406c-5.175,2.051-11.615,4.606-20.721,10.07c-12.657,7.593-20.104,15.907-26.088,22.588
		c-3.944,4.403-7.06,7.882-10.534,9.967c-3.766,2.257-12.068,6.259-20.86,10.495c-14.539,7.004-31.016,14.945-37.664,20.037
		c-8.486,6.495-27.803,17.488-46.389,17.488c-9.973,0-17.421-5.815-26.852-13.174c-6.268-4.892-13.375-10.437-22.399-15.142
		c-15.484-8.071-34.037-7.121-53.693-6.101c-11.271,0.586-22.93,1.187-34.96,0.225c-21.951-1.746-29.11-10.424-32.942-15.236
		c7.876-0.907,15.399-4.753,20.529-10.905c0.837-1.003,1.612-2.068,2.385-3.135c1.367-1.884,2.549-3.516,3.913-4.433
		c3.227-2.16,7.532-0.934,14.3,1.262c5.134,1.659,10.937,3.538,16.938,3.005c4.953-0.453,9.286-2.524,13.111-4.353
		c3.341-1.595,6.495-3.105,9.483-3.294c2.549-0.156,5.42,0.617,8.452,1.443c2.918,0.795,5.937,1.615,9.269,1.829
		c6.912,0.445,13.983-2.271,19.386-7.435c5.409-5.167,8.436-12.104,8.31-19.034C442.204,611.155,441.573,608.092,440.964,605.132z
		 M490.783,587.448c0.295-0.295,0.862-0.674,1.462-1.076c1.092-0.732,2.451-1.643,3.672-3.009c2.41-2.704,3.471-6.045,3.068-9.66
		c-0.606-5.435-4.322-10.082-7.524-13.151c1.985-2.625,3.961-4.036,4.886-3.617c0.397,0.176,1.062,0.759,1.707,1.32
		c0.881,0.77,1.882,1.641,3.149,2.408c6.168,3.731,14.756,2.193,19.979-3.581c3.916-4.333,5.803-10.528,5.309-17.449
		c-0.039-0.531-0.089-1.073-0.139-1.62c-0.108-1.148-0.356-3.836,0.017-4.29c0.028-0.031,0.308-0.31,1.479-0.732
		c6.315-2.3,13.98-0.208,18.578,4.675c-4.483,7.171-3.277,12.281-1.237,15.454c4.175,6.493,11.565,5.616,16.454,5.035
		c2.251-0.267,4.583-0.549,6.109-0.192c0.52,0.12,1.896,0.438,2.746,2.746c1.276,3.466,0.409,8.693-1.971,11.899
		c-4.511,6.074-11.788,9.952-20.256,14.1c-2.543,1.245-5.188,2.558-7.823,3.986c-2.607-6.197-8.805-10.729-15.033-12.052
		c-8.102-1.727-16.09,0.791-22.146,3.171c-4.351,1.711-9.268,3.996-13.138,7.869C490.11,588.688,490.309,587.922,490.783,587.448z
		 M427.012,435.2c-3.144,0-5.692,2.549-5.692,5.692v84.067c-3-0.571-6.049-1.254-9.129-2.037c0.1-0.421,0.165-0.855,0.165-1.307
		v-93.949c0-3.144-2.549-5.692-5.692-5.692s-5.692,2.549-5.692,5.692v92.044c-28.306-8.949-56.094-23.633-63.247-27.91
		c-1.994-3.894-8.021-16.645-8.801-29.879c-0.796-13.559-2.542-57.936-3.235-75.837c2.804,0.708,5.513,1.39,8.138,2.046v67.298
		c0,3.144,2.549,5.692,5.692,5.692s5.692-2.549,5.692-5.692v-64.48c2.449,0.599,4.775,1.162,6.974,1.688
		c-0.011,0.148-0.044,0.29-0.044,0.441v82.021c0,3.144,2.549,5.692,5.692,5.692s5.692-2.549,5.692-5.692v-79.828
		c2.499,0.556,4.669,1.016,6.445,1.361c0.748,0.145,1.529,0.286,2.311,0.426c-1.119,1.039-1.83,2.512-1.83,4.16v87.195
		c0,3.144,2.549,5.692,5.692,5.692s5.692-2.549,5.692-5.692v-87.195c0-1.018-0.289-1.96-0.757-2.787
		c32.608,4.465,85.392,5.749,127.441,5.749c13.255,0,25.448-0.126,35.593-0.322c9.659-0.186,26.363-0.981,47.103-2.219v84.115
		c0,3.144,2.549,5.692,5.692,5.692c3.143,0,5.692-2.549,5.692-5.692v-84.813c2.925-0.184,5.919-0.376,8.961-0.575v105.658
		c0,3.144,2.549,5.692,5.692,5.692c3.144,0,5.692-2.549,5.692-5.692V399.605c9.183-0.623,18.754-1.3,28.547-2.022
		c-0.15,0.51-0.256,1.039-0.256,1.599v91.921c0,3.144,2.549,5.692,5.692,5.692c3.144,0,5.692-2.549,5.692-5.692v-91.921
		c0-0.857-0.203-1.662-0.542-2.39c10.445-0.792,21.063-1.63,31.665-2.503c-0.493,0.843-0.796,1.812-0.796,2.859v33.571
		c0,3.144,2.549,5.692,5.692,5.692c3.143,0,5.692-2.549,5.692-5.692v-33.571c0-1.388-0.517-2.642-1.342-3.63
		c18.622-1.573,36.993-3.244,54.051-4.956v102.097c-3.984,1.293-8.102,2.665-12.368,4.088c-11.772,3.926-24.737,8.244-37.897,11.784
		c0.377-0.761,0.609-1.606,0.609-2.513v-40.744c0-3.144-2.549-5.692-5.692-5.692c-3.144,0-5.692,2.549-5.692,5.692v40.744
		c0,1.914,0.952,3.598,2.401,4.63c-1.349,0.322-2.699,0.654-4.047,0.954c-28.695,6.377-96.321,4.425-132.651,3.374
		c-8.844-0.256-15.832-0.457-19.734-0.457c-9.142,0-22.171,2.493-37.258,5.381c-19,3.637-40.535,7.759-62.723,8.868
		c-2.949,0.143-6.066,0.045-9.283-0.22v-85.654C432.704,437.748,430.155,435.2,427.012,435.2z M889.899,420.464
		c3.144,0,5.692-2.549,5.692-5.692v-56.285c0-0.701-0.145-1.364-0.375-1.984c1.015-0.074,2.082-0.153,3.232-0.24v76.99
		c0,3.144,2.549,5.692,5.692,5.692c3.144,0,5.692-2.549,5.692-5.692v-77.876c2.511-0.201,5.161-0.415,7.946-0.644v59.993
		c0,3.144,2.549,5.692,5.692,5.692c3.144,0,5.692-2.549,5.692-5.692v-60.945c15.153-1.288,32.629-2.858,49.766-4.541
		c-0.071,0.359-0.111,0.729-0.111,1.108v23.421c0,3.144,2.549,5.692,5.692,5.692c3.143,0,5.692-2.549,5.692-5.692v-23.421
		c0-0.778-0.158-1.519-0.44-2.194c0.763-0.078,1.524-0.156,2.283-0.235v108.915c0,3.144,2.549,5.692,5.692,5.692
		c3.144,0,5.692-2.549,5.692-5.692V347.296c0-0.197-0.039-0.384-0.058-0.576c22.759-2.472,42.199-5.006,50.683-7.126
		c9.677-2.42,20.999-5.982,29.139-10.742l4.369,108.395c-6.59,5.228-27.427,21.022-49.246,29.911
		c-19.562,7.97-45.688,9.508-70.953,10.997c-2.543,0.15-5.11,0.304-7.682,0.463v-55.029c0-3.144-2.549-5.692-5.692-5.692
		c-3.143,0-5.692,2.549-5.692,5.692v55.805c-2.378,0.183-4.735,0.377-7.046,0.593c-16.085,1.506-47.895,1.241-78.672,0.988
		c-22.006-0.183-43.112-0.354-57.798,0.127c7.484-8.489,17.388-20.116,21.757-26.981c7.112-11.176,26.774-45.57,27.608-47.029
		c1.559-2.729,0.611-6.206-2.118-7.766c-2.724-1.563-6.206-0.61-7.766,2.118c-0.203,0.354-20.362,35.616-27.33,46.565
		c-2.454,3.857-7.036,9.597-11.885,15.357v-79.445c0-0.271-0.043-0.53-0.079-0.791c18.85-2.487,32.66-4.929,38.213-7.15
		c10.926-4.371,17.699-8.383,23.141-11.607c6.608-3.914,10.597-6.25,18.013-7.079c-0.083,0.385-0.131,0.784-0.131,1.194v56.285
		C884.207,417.916,886.756,420.464,889.899,420.464z M882.891,612.794c-3.292-1.059-6.926-2.314-10.826-3.728l15.74-41.729
		c2.121,0.724,4.257,1.437,6.411,2.134c-4.903,12.328-9.233,24.995-12.824,37.746C880.809,609.281,881.465,611.385,882.891,612.794z
		 M861.74,604.186c-0.474-0.352-0.992-0.656-1.583-0.852c-1.131-0.374-2.294-0.371-3.359-0.065
		c-1.839-0.724-3.697-1.461-5.588-2.221c3.649-14.333,7.901-28.66,12.669-42.635c4.271,1.719,8.682,3.425,13.204,5.098
		L861.74,604.186z M840.578,596.702c-2.068-0.857-4.147-1.724-6.237-2.604l11.849-39.774c0.347-1.167,0.295-2.355-0.065-3.428
		c2.332,1.036,4.746,2.084,7.213,3.139C848.546,568.017,844.276,582.351,840.578,596.702z M835.278,551.075l-11.479,38.533
		c-2.385-1.026-4.764-2.056-7.129-3.088c0.422-0.584,0.752-1.248,0.931-1.992l10.053-41.74c0.038-0.154,0.039-0.307,0.063-0.461
		c3.335,1.625,6.957,3.348,10.841,5.141C837.033,548.103,835.787,549.369,835.278,551.075z M783.358,546.039
		c-4.931-9.043-14.514-15.493-25.009-16.834c-2.477-0.314-6.17-0.492-9.514,1.662c-3.799,2.445-5.047,6.546-5.79,8.994
		c-1.893,6.223-4.038,13.275-3.663,20.733c0.325,6.525,2.746,12.442,6.615,16.628c-3.88,2.736-10.212,3.276-15.481,2.153
		c-3.519-0.75-7.001-1.975-10.69-3.273c-5.398-1.898-10.979-3.862-17.102-4.437c-1.051-0.099-2.11-0.154-3.171-0.208
		c-2.276-0.117-4.43-0.227-6.04-0.863c-1.009-0.397-1.751-1.308-1.843-1.437c0.728-2.308-0.083-4.826-2.023-6.275
		c-1.943-1.448-4.589-1.516-6.59-0.156c-3.886,2.627-9.661,6.044-14.948,5.38c-2.115-0.265-4.333-1.702-5.514-3.578
		c-0.484-0.769-0.981-1.923-0.603-3.053c0.181-0.536,0.567-1.251,0.978-2.008c1.039-1.918,2.463-4.544,2.385-7.853
		c-0.131-5.897-4.389-10.312-12.655-13.123l-25.031-8.512c-5.767-1.962-19.284-6.554-28.356,1.757
		c-7.274,6.659-6.643,17.398-6.301,23.173c0.108,1.833,0.261,4.344,1.587,6.807c4.016,7.481,12.41,6.368,17.972,5.635
		c1.234-0.164,2.451-0.331,3.588-0.397c2.721-0.143,5.592,0.948,7.905,3.032c2.315,2.086,3.711,4.836,3.833,7.546
		c0.122,2.71-1.02,5.576-3.135,7.862c-2.118,2.286-4.886,3.647-7.596,3.733c-0.948,0.028-1.948-0.004-2.963-0.032
		c-5.056-0.146-12.696-0.372-16.065,6.632c-2.276,4.735-0.536,9.179,0.737,12.425c0.42,1.067,0.814,2.079,0.995,2.888
		c1.076,4.85-4.842,10.059-10.239,13.049c-13.041,7.227-27.803,10.809-42.731,10.381c-7.985-0.233-13.425-2.104-16.173-5.562
		c-3.933-4.945-2.043-13.155,2.057-18.239c4.933-6.117,12.844-9.991,20.618-13.797c7.485-3.667,17.741-8.688,24.264-17.477
		c4.661-6.277,6.106-15.577,3.516-22.616c-1.918-5.213-5.776-8.732-10.868-9.909c-3.455-0.796-6.94-0.385-10.014-0.019
		c-1.79,0.21-4.789,0.567-5.545,0.1c-0.003-0.015-0.228-1.645,3.107-5.694c1.512-1.837,1.723-4.422,0.528-6.48
		c-2.738-4.708-6.876-8.386-11.655-10.812c3.806,0.078,8.8,0.222,14.641,0.391c36.825,1.06,105.373,3.044,135.447-3.642
		c17.899-3.976,35.724-9.921,51.453-15.167c12.631-4.213,24.711-8.232,34.893-10.57l0.061,0.145
		c0.634,1.494,1.876,2.646,3.413,3.166c1.117,0.378,2.312,0.397,3.43,0.071c0.456,0.396,1.134,1.128,1.807,2.211l8.555,13.751
		c0.953,1.529,1.443,2.522,1.481,2.798c-0.075,0.214-0.436,0.782-0.698,1.198c-0.459,0.717-1.026,1.611-1.495,2.672
		c-2.746,6.211-0.094,11.967,2.035,16.593c0.659,1.43,1.281,2.781,1.693,4.008c1.587,4.75,0.439,10.822-3.071,16.24
		c-3.627,5.591-9.114,10.021-14.422,14.079c-0.221,0.169-0.407,0.366-0.596,0.559c-0.14-0.065-0.286-0.132-0.427-0.197
		C788.238,563.952,787.756,554.104,783.358,546.039z M810.002,653.825c-2.743,18.411-73.599,88.786-179.784,93.675
		c-5.127,0.236-10.352,0.318-15.65,0.266c0.015-0.051,0.051-0.089,0.065-0.141l5.948-21.407c0.842-3.03-0.931-6.168-3.961-7.007
		c-3.027-0.842-6.165,0.937-7.007,3.961l-5.948,21.407c-0.272,0.982-0.246,1.968-0.017,2.891c-3.462-0.15-6.947-0.35-10.455-0.602
		c2.973-9.877,5.56-19.959,7.656-30.054c0.639-3.077-1.337-6.09-4.417-6.729c-3.068-0.645-6.09,1.337-6.729,4.417
		c-2.19,10.545-4.921,21.083-8.094,31.366c-2.482-0.248-4.971-0.519-7.466-0.81c0.121-0.329,0.214-0.672,0.272-1.03
		c2.791-16.946,6.54-33.931,11.143-50.483c0.842-3.03-0.931-6.168-3.958-7.01c-3.027-0.837-6.168,0.928-7.01,3.958
		c-4.714,16.946-8.552,34.337-11.409,51.683c-0.082,0.5-0.075,0.99-0.028,1.471c-2.828-0.395-5.659-0.811-8.49-1.253
		c3.378-18.578,8.562-36.886,15.461-54.456c0.417-1.06,0.484-2.168,0.274-3.207c1.436,0.872,3.184,1.062,4.763,0.53
		c1.959-0.164,8.536-0.011,14.9,0.142c7.677,0.181,17.269,0.406,27.761,0.406c25.735,0,56.881-1.359,78.438-8.077
		c42.436-13.222,70.761-33.32,80.07-39.924c6.986-4.954,14.659-14.082,19.31-20.053C803.162,626.568,812.177,639.23,810.002,653.825
		z M371.498,702.629c18.29,7.324,99.152,38.428,181.466,51.112c-56.543,5.881-151.056,12.571-233.081,3.331L371.498,702.629z
		 M535.362,739.053l11.715-40.307c0.257-0.886,0.265-1.777,0.107-2.626c2.802-1.577,6.086-3.305,9.607-5.094
		c-5.841,16.073-10.306,32.682-13.354,49.504C540.741,740.055,538.048,739.562,535.362,739.053z M524.15,736.827
		c-2.182-0.453-4.359-0.912-6.529-1.383l7.227-25.396c3.02-1.538,5.866-3.155,8.48-4.797L524.15,736.827z M506.497,732.938
		c-2.301-0.536-4.587-1.083-6.865-1.635c0.659-4.493,2.204-8.93,4.511-12.845c0.11-0.187,0.179-0.384,0.265-0.577
		c2.357-0.606,4.683-1.31,6.968-2.097L506.497,732.938z M488.581,728.543c-4.964-1.276-9.852-2.578-14.648-3.898l2.271-6.054
		c3.351,1.04,6.919,1.656,10.829,1.656c1.267,0,2.538-0.042,3.809-0.123C489.825,722.861,489.073,725.684,488.581,728.543z
		 M462.936,721.547c-4.658-1.343-9.205-2.691-13.629-4.036l5.049-11.93c3.799,2.96,7.552,5.813,11.487,8.21L462.936,721.547z
		 M438.379,714.125c-2.26-0.714-4.471-1.423-6.646-2.127l7.677-17.324c1.943,1.241,3.801,2.511,5.589,3.803L438.379,714.125z
		 M420.87,708.419c-1.752-0.588-3.467-1.168-5.145-1.741c2.545-6.585,5.623-12.963,9.196-19.048c1.53,0.444,3.014,0.975,4.464,1.573
		L420.87,708.419z M404.971,702.942c-0.938-0.332-1.854-0.658-2.759-0.98l7.306-16.652c1.165,0.057,2.315,0.132,3.449,0.228
		C409.899,691.142,407.257,696.976,404.971,702.942z M391.492,698.065c-0.516-0.191-1.037-0.384-1.534-0.569
		c0.111-3.692,1.18-7.411,3.114-10.547c0.309-0.498,0.502-1.029,0.642-1.567c1.142-0.047,2.274-0.086,3.395-0.12L391.492,698.065z
		 M378.908,693.294c-1.719-0.669-3.121-1.223-4.194-1.651v-5.365c2.083-0.084,4.143-0.179,6.198-0.282
		C379.97,688.347,379.282,690.787,378.908,693.294z M769.745,628.526c-8.944,6.345-36.16,25.654-76.868,38.339
		c-28.174,8.776-75.339,7.79-101.439,7.182c2.589-1.32,4.763-2.484,6.363-3.444c4.95-2.971,8.752-7.215,13.158-12.132
		c5.756-6.429,12.282-13.714,23.467-20.423c8.308-4.983,14.019-7.249,19.059-9.25c6.912-2.741,12.883-5.109,20.701-12.947
		c10.46-10.486,21.328-27.205,24.98-33.014c0.834,0.043,1.666,0.084,2.492,0.161c4.731,0.445,9.422,2.096,14.389,3.843
		c3.866,1.359,7.863,2.766,12.096,3.667c8.811,1.881,19.687,0.591,26.527-5.69c9.445,6.436,25.247,17.573,33.09,24.523
		C783.258,615.227,775.733,624.277,769.745,628.526z M809.93,564.02c0.563-0.869,1.058-1.755,1.537-2.644l-4.933,20.486
		c-0.015,0.061-0.013,0.122-0.025,0.183c-3.259-1.448-6.459-2.882-9.574-4.29C801.605,573.961,806.362,569.521,809.93,564.02z
		 M816.586,540.123l-1.099,4.563c-0.125-2.302-0.523-4.556-1.244-6.711c-0.354-1.062-0.774-2.077-1.209-3.071
		c1.504,0.791,3.17,1.657,5.017,2.602C817.363,538.214,816.834,539.094,816.586,540.123z M794.169,475.91
		c-1.715,1.928-3.217,3.601-4.405,4.915c0.004-0.078,0.024-0.152,0.024-0.231v-79.379c0-3.144-2.549-5.692-5.692-5.692
		c-3.144,0-5.692,2.549-5.692,5.692v79.379c0,0.334,0.043,0.657,0.099,0.975c-0.168,0.9-0.095,1.844,0.199,2.763
		c-3.291,0.798-6.711,1.726-10.276,2.779V387.39c8.937-0.941,17.406-1.889,25.24-2.836v89.036
		C793.665,474.419,793.851,475.2,794.169,475.91z M305.423,682.089c2.702-3.142,4.69-6.871,5.977-10.835
		c5.781,5.877,16.161,13.12,36.826,14.768c5.156,0.411,10.164,0.509,15.103,0.494v7.694c0,0.151,0.033,0.293,0.044,0.442
		l-34.987,36.906c-0.32-0.108-0.648-0.199-0.992-0.251c-26.46-3.922-47.126-18.309-61.831-32.858
		c1.934-0.176,3.729-0.507,5.228-0.792C284.174,695.107,296.893,691.997,305.423,682.089z M898.671,612.7
		c-0.5,1.268-0.489,2.6-0.104,3.806c-2.356-0.058-6.054-0.849-10.754-2.206c2.096-0.361,3.92-1.815,4.535-3.998
		c3.569-12.668,7.884-25.256,12.785-37.489c2.803,0.817,5.62,1.606,8.451,2.353c-0.193,0.304-0.366,0.627-0.502,0.974L898.671,612.7
		z M812.355,521.61c0.243-0.567,0.468-1.166,0.627-1.835c0.104-0.44,0.145-0.867,0.193-1.296c8.003,5.803,18.094,7.244,26.386,7.499
		c0.028,0.25,0.047,0.5,0.111,0.751c0.753,2.977,3.752,4.794,6.693,4.172c3.385-0.296,23.205,2.713,64.647,12.188
		c13.074,2.988,22.369,6.401,29.837,9.144c9.464,3.476,17.027,6.254,26.602,6.254c3.672,0,7.638-0.409,12.118-1.342
		c10.831-2.258,20.098-4.785,28.272-7.015c9.303-2.538,17.335-4.729,24.089-5.474c5.57-0.613,14.283-0.163,22.716,0.277
		c11.271,0.585,21.919,1.137,28.761-0.377c1.904-0.421,3.977-0.649,6.151-0.801c-1.509,1.175-2.961,2.251-4.191,3.055
		c-1.062,0.693-26.852,17.081-103.403,24.741C918.966,577.852,827.564,529.883,812.355,521.61z M872.57,523.253
		c3.644-0.663,7.271-1.415,10.865-2.315c1.153-0.289,2.307-0.591,3.46-0.892c5.27-1.379,10.248-2.681,15.167-2.752
		c7.051-0.118,14.036,2.281,21.477,4.8c9.039,3.063,18.378,6.236,28.545,5.136c3.661-0.393,7.213-1.309,10.648-2.194
		c6.415-1.655,11.954-3.081,16.26-0.839c2.16,1.124,4.091,3.305,6.137,5.614l1.401,1.566c3.706,4.074,7.543,7.268,11.476,9.618
		c-6.27,1.674-13.134,3.415-20.76,5.003c-12.977,2.709-19.903,0.163-32.472-4.453c-7.771-2.854-17.444-6.405-31.227-9.556
		C900.154,528.928,885.244,525.665,872.57,523.253z M1104.251,458.252c2.035,4.44,2.054,9.927,1.862,15.633
		c-13.822,3.649-28.106,7.4-42.358,8.966c-2.04,0.225-3.802,1.531-4.611,3.419c-0.806,1.887-0.536,4.064,0.709,5.695
		c3.321,4.346,2.632,10.213,0.884,14.253c-1.751,4.041-5.562,8.558-11.004,9.11c-1.334,0.138-2.854,0.128-4.48,0.128
		c-5.264-0.039-11.743-0.032-16.401,5.092c-1.846,2.032-2.813,4.353-3.588,6.216c-0.297,0.714-0.586,1.433-0.951,2.111
		c-2.162,4.03-8.005,6.241-13.577,5.132c-5.2-1.031-10.512-4.493-15.784-10.291l-1.301-1.454c-2.518-2.843-5.375-6.067-9.397-8.162
		c-8.174-4.258-16.774-2.044-24.362-0.089c-3.182,0.82-6.19,1.595-9.025,1.901c-7.649,0.823-15.437-1.811-23.672-4.601
		c-8.027-2.718-16.218-5.553-25.298-5.402c-6.298,0.092-12.188,1.633-17.88,3.121c-1.117,0.293-2.232,0.585-3.346,0.864
		c-12.043,3.014-24.442,4.611-36.852,4.744c-12.68,0.158-20.951-2.128-26.052-7.114c-2.738-2.681-4.789-6.394-6.96-10.327
		c-0.867-1.568-1.771-3.19-2.75-4.803c14.477-0.366,34.675-0.2,54.431-0.036c31.052,0.253,63.165,0.523,79.828-1.038
		c8.238-0.771,16.729-1.273,25.721-1.802c26.19-1.543,53.27-3.138,74.58-11.819c19.532-7.957,37.767-20.663,47.374-27.923
		c1.205,1.763,3.339,2.786,5.583,2.418C1099.015,451.65,1102.686,454.842,1104.251,458.252z M66.648,301.051
		c13.313-1.654,295.567-36.723,325.873-42.785c28.659-5.733,312.132-22.272,334.604-22.272c17.333,0,158.519,11.084,197.725,23.148
		c40.063,12.327,139.58,47.26,156.982,56.799c-2.924,2.82-12.074,7.991-30.54,12.607c-19.195,4.799-103.467,12.433-144.666,15.683
		c-0.755-0.368-1.59-0.593-2.485-0.593c-1.216,0-2.337,0.389-3.263,1.039c-6.472,0.494-11.487,0.845-14.347,1.004
		c-12.127,0.674-18.252,4.303-26.007,8.897c-5.106,3.024-11.46,6.787-21.571,10.831c-24.287,9.715-241.323,26.029-295.058,27.063
		c-45.852,0.884-133.621,0.396-171.752-7.019c-19.525-3.795-86.857-21.447-151.97-38.517
		c-56.809-14.892-110.465-28.959-131.72-33.681c-22.148-4.923-24.463-9.861-24.542-9.868
		C64.093,302.724,65.681,301.451,66.648,301.051z M69.639,411.345c-2.073-3.413-4.211-6.933-6.882-9.602
		c-2.132-7.034-1.494-46.113,0.438-84.854c6.64,3.505,15.308,5.814,22.79,7.477c21.043,4.676,74.6,18.717,131.3,33.581
		c34.058,8.928,68.705,18.011,96.896,25.211c0.574,14.896,2.518,64.819,3.38,79.432c0.609,10.349,3.854,20.232,6.647,27.024
		c-2.786,0.08-6.22,0.232-10.558,0.442c-10.387,0.507-23.319,1.134-30.296,0.135c-8.861-1.266-99.556-33.507-153.744-52.772
		c-40.732-14.479-52.587-18.658-55.205-19.332C73.238,417.268,70.995,413.577,69.639,411.345z M111.669,522.415l-1.128-1.096
		c-4.639-4.498-9.436-9.148-10.212-14.393c-0.175-1.199-0.167-2.603-0.156-4.089c0.019-2.568,0.039-5.48-0.873-8.502
		c-1.095-3.624-3.26-6.518-5.167-9.071c-1.848-2.471-3.444-4.604-3.352-6.347c0.031-0.589,0.281-1.448,0.542-2.357
		c0.389-1.349,0.828-2.878,0.956-4.668c0.325-4.61-1.612-8.476-3.171-11.583c-0.561-1.123-1.095-2.185-1.473-3.169
		c-2.471-6.404,0.967-14.825,7.215-17.669c0.823-0.375,1.494-0.934,2.03-1.59c8.608,3.047,18.643,6.614,28.916,10.266
		c79.856,28.389,146.709,51.995,155.945,53.315c8.063,1.152,21.024,0.523,32.458-0.033c6.484-0.317,14.472-0.706,16.882-0.384
		c7.646,4.403,66.498,37.18,107.822,37.18c1.231,0,2.451-0.029,3.649-0.089c22.98-1.149,45.888-5.534,64.296-9.057
		c3.558-0.681,6.993-1.338,10.275-1.943c-2.813,3.943-2.426,8.527-2.112,11.925l0.12,1.388c0.267,3.737-0.606,7.017-2.396,8.996
		c-1.495,1.655-4.18,2.361-5.642,1.476c-0.425-0.256-0.973-0.735-1.554-1.242c-1.159-1.01-2.599-2.268-4.555-3.141
		c-7.768-3.474-16.212,1.356-22.019,12.599c-1.295,2.513-0.553,5.596,1.748,7.242c4.233,3.028,6.743,6.682,6.954,8.583
		c0.047,0.416-0.019,0.563-0.253,0.826c-0.256,0.288-0.892,0.713-1.504,1.123c-0.934,0.625-2.096,1.402-3.182,2.489
		c-8.116,8.124-1.89,20.248,0.77,25.423c0.814,1.587,1.009,4.864-0.197,8.055c-0.692,1.826-1.762,3.249-2.724,3.627
		c-1.173,0.459-2.16,1.292-2.807,2.374c-1.715,2.854-5.703,4.433-8.908,3.522c-3.199-0.914-5.759-4.366-5.703-7.691
		c0.022-1.484,0.475-3.207,0.951-5.028c0.436-1.662,0.884-3.38,1.137-5.273c1.178-8.822-3.043-17.813-10.27-21.867
		c-4.155-2.333-9.283-2.893-14.072-1.527c-4.467,1.273-8.074,4.059-10.162,7.846c-3.463,6.286-2.118,12.812-0.931,18.569
		c0.528,2.565,1.028,4.986,1.067,7.163c0.069,3.758-1.676,7.618-4.789,10.595c-3.113,2.974-7.043,4.553-10.798,4.303
		c-2.182-0.139-4.525-0.775-7.007-1.451c-3.616-0.987-7.721-2.104-12.157-1.821c-5.192,0.328-9.7,2.485-13.678,4.386
		c-3.246,1.551-6.312,3.018-9.233,3.283c-3.663,0.356-7.905-1.039-12.396-2.496c-7.579-2.451-16.168-5.242-24.15,0.117
		c-3.049,2.048-5.036,4.789-6.79,7.207c-0.62,0.856-1.237,1.718-1.909,2.521c-4.711,5.651-12.972,8.294-20.092,6.434
		c-3.049-0.806-6.154,1.026-6.946,4.066c-0.335,1.276-0.186,2.554,0.299,3.679c-0.079,0.613-0.085,1.244,0.049,1.883
		c1.251,6.037-0.47,12.691-4.489,17.363c-6.143,7.135-16.374,9.57-28.131,11.81c-3.547,0.673-6.646,1.145-8.638,0.156
		c-1.431-0.714-2.729-2.485-3.583-3.758c-1.526-2.274-2.846-4.747-4.247-7.365c-1.876-3.513-3.816-7.146-6.407-10.548
		c-4.817-6.326-13.377-12.48-22.936-10.876c-6.559,1.117-11.549,5.487-15.951,9.339c-4.786,4.186-7.874,6.701-10.987,5.97
		c-3.088-0.731-4.8-4.442-7.252-10.465c-2.507-6.165-5.35-13.155-12.138-16.76c-2.718-1.448-5.537-2.012-8.021-2.513
		c-2.265-0.453-4.219-0.845-5.389-1.729c-2.415-1.826-2.763-6.776-3.071-11.145C157.299,587.762,139.669,549.723,111.669,522.415z
		 M156.254,647.01c3.244,2.449,6.837,3.169,10.006,3.805c1.887,0.378,3.672,0.737,4.922,1.401c3.141,1.67,4.984,6.204,6.937,11.001
		c2.738,6.732,6.148,15.112,15.165,17.252c8.989,2.123,15.709-3.752,21.112-8.483c0.202-0.176,0.4-0.348,0.6-0.523l-5.236,39.227
		c-0.089,0.662-0.058,1.334,0.086,1.987c0.114,0.513,0.725,3.183,1.948,7.265c-14.668-8.019-38.334-20.515-49.629-24.044
		c-10.162-3.174-33.3-20.898-48.612-32.628c-8.08-6.19-14.459-11.076-18.233-13.433c-2.943-1.838-4.981-3.732-6.407-5.438
		c16.642-1.346,51.579-4.458,61.728-5.364C151.713,642.026,153.395,644.85,156.254,647.01z M85.546,765.366
		c-3.441-40.646-8.474-104.303-7.969-109.784c0.327-2.001,0.805-3.871,1.33-5.498c2.208,3.029,5.492,6.354,10.383,9.408
		c3.313,2.068,9.814,7.049,17.341,12.816c17.844,13.666,40.051,30.679,52.139,34.457c4.567,1.427,11.608,4.601,19.274,8.37
		c-2.98-0.69-5.981,1.06-6.792,4.027l-3.052,11.196c-0.825,3.032,0.962,6.162,3.997,6.987c0.5,0.136,1.003,0.203,1.498,0.203
		c2.504,0,4.8-1.668,5.489-4.2l3.052-11.19c0.605-2.222-0.203-4.488-1.866-5.871c15.565,7.763,32.89,17.453,37.264,19.917
		c8.726,20.805,25.676,49.02,55.279,57.094c0.489,0.133,0.992,0.2,1.498,0.2h26.407c0.311,3.53,0.85,6.859,1.74,9.659
		c5.545,17.471,28.611,18.828,35.549,18.828c1.228,0,6.22,0.573,11.996,1.237c0.976,0.112,2.051,0.235,3.134,0.358
		c-0.036,0.259-0.079,0.515-0.079,0.784v65.642c-1.868-0.396-3.831-0.823-5.912-1.287v-46.995c0-3.144-2.549-5.692-5.692-5.692
		s-5.692,2.549-5.692,5.692v44.344c-1.587-0.385-3.223-0.789-4.892-1.206v-24.844c0-3.143-2.549-5.692-5.692-5.692
		s-5.692,2.549-5.692,5.692v21.893c-18.756-5.022-41.401-11.882-66.617-21.114C188.092,837.036,100.243,775.775,85.546,765.366z
		 M364.541,892.291v-67.458c23.03,2.474,58.71,5.707,97.182,5.707c20.923,0,42.675-0.956,63.64-3.513
		c9.588-1.169,20.002-2.87,30.963-4.993c1.748,0.514,6.111,2.25,10.034,3.814c4.069,1.624,8.775,3.498,13.696,5.323
		c-17.181,2.604-44.921,6.142-78.07,7.918c-55.536,2.957-126.058-10.945-126.764-11.087c-1.673-0.336-3.405,0.1-4.722,1.178
		c-1.32,1.081-2.085,2.696-2.085,4.403v59.417C367.268,892.797,365.975,892.56,364.541,892.291z M483.981,921.472
		c-3.144,0-5.692,2.549-5.692,5.692v32.581c-2.001-0.297-3.969-0.607-5.909-0.927V850.693c1.633,0.051,3.264,0.092,4.897,0.125
		c0,0.018-0.006,0.034-0.006,0.051v53.929c0,3.144,2.549,5.692,5.692,5.692c3.144,0,5.692-2.549,5.692-5.692v-53.913
		c2.67-0.026,5.323-0.086,7.96-0.174c-0.001,0.056-0.017,0.108-0.017,0.164v111.154c-2.344-0.236-4.651-0.49-6.926-0.759v-34.106
		C489.674,924.021,487.125,921.472,483.981,921.472z M448.374,910.296c-3.144,0-5.692,2.549-5.692,5.692v36.621
		c-1.665-0.428-3.295-0.861-4.892-1.299V848.433c0.948,0.091,1.9,0.179,2.857,0.267v44.908c0,3.144,2.549,5.692,5.692,5.692
		c3.144,0,5.692-2.549,5.692-5.692v-43.976c2.964,0.213,5.956,0.404,8.964,0.569v106.552c-2.357-0.467-4.675-0.945-6.929-1.44
		v-39.326C454.066,912.845,451.518,910.296,448.374,910.296z M412.767,893.92c-3.144,0-5.692,2.549-5.692,5.692v41.335
		c-2.147-0.883-4.151-1.746-6.01-2.582c0.058-0.329,0.101-0.664,0.101-1.01v-92.669c0-0.259-0.043-0.506-0.076-0.756
		c0.962,0.143,1.936,0.286,2.934,0.43v37.039c0,3.144,2.549,5.692,5.692,5.692s5.692-2.549,5.692-5.692v-35.484
		c3.533,0.455,7.203,0.903,10.998,1.332v100.691c-2.781-0.884-5.43-1.773-7.946-2.66v-45.666
		C418.459,896.468,415.91,893.92,412.767,893.92z M379.797,899.92c0.001-0.039-0.007-0.076-0.007-0.115
		c0.001-0.032,0.01-0.061,0.01-0.093v-59.266c2.785,0.502,6.361,1.123,10.545,1.808c-0.352,0.74-0.564,1.558-0.564,2.431v88.053
		c-2.992-1.686-4.97-3.011-5.865-3.778C381.29,926.708,379.325,912.867,379.797,899.92z M507.964,962.996
		c0.003-0.072,0.021-0.139,0.021-0.211V850.875c0-0.246-0.042-0.481-0.072-0.719c1.808-0.109,3.598-0.223,5.371-0.341
		c-0.254,0.645-0.404,1.342-0.404,2.077v94.617c0,3.143,2.549,5.692,5.692,5.692c3.144,0,5.692-2.549,5.692-5.692v-94.617
		c0-1.031-0.296-1.986-0.775-2.82c3.323-0.262,6.569-0.538,9.736-0.825v115.555c0,0.06,0.017,0.116,0.018,0.176
		c-7.717-0.057-15.234-0.295-22.437-0.771C509.845,963.145,508.913,963.065,507.964,962.996z M723.012,943.657
		c-3.476,0.593-7.368,1.255-11.56,1.961v-70.352c0-3.143-2.549-5.692-5.692-5.692c-3.143,0-5.692,2.549-5.692,5.692v72.245
		c-4.13,0.677-8.481,1.379-13.03,2.096V839.521c0-1.437-0.55-2.735-1.429-3.737c4.747-0.567,9.367-1.213,13.893-1.916
		c-0.903,1.008-1.469,2.325-1.469,3.785v22.383c0,3.143,2.549,5.692,5.692,5.692c3.144,0,5.692-2.549,5.692-5.692v-22.383
		c0-2.117-1.17-3.943-2.885-4.924c6.937-1.218,13.602-2.602,19.987-4.156v114.486C725.388,943.252,724.229,943.45,723.012,943.657z
		 M907.799,914.244V803.858c0-1.816-0.867-3.415-2.192-4.458c4.482-0.985,9.274-2.018,14.207-3.069v113.331
		c-0.927,0.37-1.815,0.735-2.654,1.095C914.122,912.059,911.008,913.21,907.799,914.244z M1119.605,821.696
		c-14.022,16.021-59.266,44.688-92.082,55.302c-13.755,4.453-30.824,9.294-47.331,13.975c-9.954,2.824-19.685,5.585-28.647,8.238
		v-47.317c0-3.144-2.549-5.692-5.692-5.692c-3.144,0-5.692,2.549-5.692,5.692v50.768c-3.157,0.985-6.144,1.949-8.961,2.892V793.919
		c2.95-0.622,5.898-1.243,8.802-1.854c3.177-0.668,6.4-1.347,9.636-2.029c0.008-0.002,0.019-0.004,0.028-0.006
		c0.001,0,0.003-0.001,0.004-0.001c27.265-5.748,55.94-11.902,75.66-17.153c0.021-0.006,0.042-0.003,0.064-0.009
		c0.025-0.007,0.06-0.023,0.085-0.031c3.883-1.035,7.456-2.039,10.555-2.993c37.122-11.421,60.005-21.788,74.202-33.62
		c6.701-5.585,13.388-11.176,18.073-15.096c0.785,6.039,1.388,14.875,1.769,20.46l0.339,4.911
		C1132.02,768.96,1130.506,809.236,1119.605,821.696z M1096.736,700.886c11.069,6.065,18.418,9.859,23.392,12.245
		c-4.619,3.864-10.893,9.109-17.18,14.349c-10.542,8.785-26.815,16.84-51.628,25.424c7.953-7.403,14.888-15.096,16.032-19.671
		c1.629-6.516,1.055-18.465,0.55-25.181c9.881-2.928,18.999-5.868,27.104-8.625C1095.465,700.008,1096.046,700.508,1096.736,700.886
		z M1032.017,705.906c-48.705,11.681-171.354,6.481-194.016,5.396c-0.292-0.717-0.571-1.402-0.827-2.024
		c-0.678-1.648-2.087-2.882-3.808-3.338l-15.932-4.213c12.56-18.851,24.092-39.255,31.224-53.632
		c17.282,0.991,89.167,5.008,118.559,5.008c33.484,0,108.314-7.774,111.483-8.105c0.286-0.031,0.57-0.081,0.848-0.156l45.769-11.971
		v43.195C1114.146,680.621,1077.016,695.124,1032.017,705.906z M1137.565,577.117c-2.335,19.016-8.447,37.046-10.845,43.622
		l-49.632,12.98c-4.186,0.432-37.929,3.878-69.245,6.104c0.039-0.075,0.099-0.129,0.135-0.206l6.104-13.224
		c1.317-2.854,0.072-6.237-2.782-7.552c-2.846-1.326-6.237-0.075-7.552,2.782l-6.104,13.225c-0.713,1.545-0.655,3.236-0.017,4.679
		c-1.787-0.521-4.133-1.2-6.942-2.004c0.042-0.092,0.111-0.162,0.149-0.257l7.121-18.311c1.14-2.93-0.314-6.229-3.244-7.368
		c-2.938-1.142-6.229,0.314-7.368,3.244l-7.121,18.311c-0.171,0.439-0.265,0.885-0.324,1.332c-3.301-0.922-6.85-1.902-10.572-2.914
		l8.199-18.449c1.279-2.874-0.014-6.237-2.888-7.513c-2.863-1.287-6.237,0.017-7.513,2.888l-8.936,20.095
		c-2.118-0.557-4.253-1.114-6.402-1.666c0.138-0.233,0.313-0.435,0.418-0.693l8.019-19.378c1.203-2.904-0.178-6.233-3.082-7.436
		c-2.899-1.201-6.234,0.179-7.435,3.082l-8.019,19.38c-0.327,0.788-0.448,1.604-0.416,2.403c-3.285-0.805-6.539-1.584-9.706-2.313
		c0.233-0.38,0.472-0.758,0.616-1.202l9.889-30.614c0.967-2.992-0.675-6.2-3.666-7.167c-3.01-0.97-6.204,0.678-7.168,3.667
		l-9.889,30.611c-0.261,0.808-0.318,1.628-0.224,2.419c-4.462-0.92-8.588-1.685-12.196-2.229c0.106-0.195,0.249-0.357,0.332-0.569
		l14.411-36.558c0.336-0.853,0.429-1.735,0.353-2.59c15.551,3.537,31.205,5.778,45.991,5.778c4.447,0,8.822-0.2,13.083-0.627
		c77.952-7.8,105.604-24.649,108.5-26.544c6.195-4.052,16.337-13.162,16.765-13.547c0.247-0.223,0.459-0.471,0.659-0.724
		c3.99-0.889,7.855-2.376,11.259-5.055c1.318-1.036,2.828-2.107,4.401-3.187C1129.995,542.498,1139.575,560.774,1137.565,577.117z
		 M129.769,481.248c-2.073-2.363-1.84-5.959,0.523-8.034c2.36-2.073,5.959-1.839,8.033,0.521
		c32.972,37.543,68.518,73.545,105.651,107.006c2.335,2.105,2.524,5.705,0.417,8.039c-1.123,1.247-2.674,1.882-4.23,1.882
		c-1.356,0-2.718-0.482-3.808-1.463C198.893,555.442,163.033,519.121,129.769,481.248z M248.056,624.657
		c1.812,2.571,1.195,6.123-1.373,7.932c-2.832,1.996-6.295,3.024-9.881,3.024c-2.029,0-4.097-0.328-6.115-0.998
		c-5.581-1.857-9.92-6.04-11.601-11.195c-0.172-0.525-0.32-1.067-0.467-1.612c-0.094-0.359-0.228-0.853-0.339-1.17
		c-0.767-0.114-2.44,0.017-3.497,0.103c-1.682,0.136-3.583,0.292-5.52,0.103c-9.136-0.914-14.892-9.439-16.374-16.974
		c-0.945-4.818-0.653-9.446-0.372-13.922c0.111-1.747,0.222-3.495,0.247-5.236c0.022-1.726-0.039-3.927-0.706-5.582
		c-0.592-1.473-1.818-2.987-3.116-4.589l-12.435-15.358c-1.979-2.443-1.604-6.027,0.839-8.006c2.438-1.979,6.026-1.607,8.005,0.841
		l12.438,15.359c1.684,2.08,3.597,4.439,4.828,7.495c1.423,3.534,1.568,7.196,1.531,9.992c-0.028,1.934-0.147,3.869-0.27,5.802
		c-0.247,3.926-0.481,7.635,0.183,11.011c0.7,3.565,3.157,7.522,6.332,7.839c0.912,0.089,2.143-0.014,3.452-0.12
		c3.797-0.314,9.533-0.784,13.33,4.033c1.484,1.884,2.035,3.933,2.438,5.428c0.092,0.345,0.183,0.692,0.295,1.028
		c0.567,1.74,2.199,3.205,4.369,3.927c2.165,0.723,4.355,0.528,5.845-0.528C242.7,621.469,246.246,622.089,248.056,624.657z
		 M267.906,608.295c0.106,3.141-2.357,5.773-5.5,5.878l-13.252,0.442c-0.139,0.006-0.281,0.006-0.422,0.006
		c-2.952,0-6.698-0.995-8.844-3.83c-1.476-1.946-1.896-4.405-1.153-6.748c0.951-3,4.166-4.656,7.146-3.705
		c1.529,0.484,2.71,1.554,3.371,2.882l12.777-0.425C265.216,602.75,267.801,605.151,267.906,608.295z M244.351,533.893
		c-1.203-1.062-1.901-2.582-1.926-4.186c-0.047-3.303,1.17-6.619,3.344-9.097c2.071-2.364,5.664-2.606,8.033-0.531
		c1.017,0.892,1.64,2.068,1.857,3.305c6.298,0.019,13.377,1.099,18.658,6.298c1.265,1.247,2.257,2.577,3.132,3.751
		c0.695,0.931,1.351,1.809,1.996,2.444c1.087,1.069,2.707,2.003,4.419,2.992c2.905,1.676,6.195,3.574,8.594,6.987
		c0.725,1.034,1.256,2.047,1.72,2.941c0.4,0.766,0.775,1.488,1.109,1.873c0.948,1.108,5.3,1.978,8.177,2.554
		c4.92,0.984,10.409,2.082,13.964,5.61c7.805,2.339,16.457,4.696,24.32,3.255c3.558-0.656,7.088-2.097,10.82-3.623
		c2.513-1.024,5.106-2.085,7.835-2.952c9.825-3.124,18.655-2.237,24.842,2.504c3.141,2.407,5.375,5.631,7.346,8.476
		c2.604,3.759,4.336,6.062,6.407,6.322c0.725,0.089,1.798-0.049,2.938-0.2c2.151-0.281,4.825-0.63,7.707,0.183
		c1.82,0.516,3.305,1.385,4.5,2.086c0.5,0.292,1.217,0.713,1.615,0.87c0.762-0.598,2.026-2.759,2.729-3.956
		c0.467-0.798,0.928-1.583,1.398-2.315c4.022-6.262,11.307-10.192,19.489-10.51c8.138-0.304,15.751,3.034,20.248,8.966
		c1.898,2.506,1.409,6.076-1.098,7.974c-2.513,1.904-6.079,1.404-7.974-1.098c-2.254-2.971-6.34-4.665-10.734-4.467
		c-4.469,0.174-8.338,2.15-10.353,5.286c-0.389,0.606-0.767,1.256-1.153,1.915c-2.254,3.851-5.642,9.636-12.435,9.636
		c-0.117,0-0.236-0.001-0.356-0.006c-3.063-0.09-5.414-1.468-7.132-2.474c-0.7-0.411-1.426-0.835-1.846-0.955
		c-0.625-0.176-1.893-0.007-3.124,0.15c-1.715,0.227-3.666,0.482-5.84,0.208c-7.265-0.914-11.19-6.582-14.345-11.134
		c-1.64-2.367-3.188-4.6-4.911-5.922c-4.411-3.378-11.593-1.609-14.472-0.692c-2.293,0.73-4.567,1.659-6.976,2.642
		c-4.105,1.677-8.349,3.41-13.063,4.279c-11.112,2.053-22.291-1.324-31.268-4.032c-1.259-0.379-2.346-1.184-3.08-2.275
		c-0.734-1.091-5.612-2.066-8.23-2.592c-5.448-1.09-11.082-2.217-14.586-6.304c-1.181-1.377-1.946-2.843-2.56-4.022
		c-0.297-0.566-0.578-1.14-0.942-1.659c-0.953-1.355-2.813-2.429-4.97-3.673c-2.151-1.241-4.589-2.647-6.707-4.731
		c-1.273-1.249-2.265-2.583-3.144-3.761c-0.695-0.928-1.348-1.807-1.993-2.442c-3.766-3.711-11.054-3.241-17.583-2.515
		C247.13,535.453,245.551,534.952,244.351,533.893z M276.917,513.774c1.568-2.724,5.053-3.659,7.774-2.087l21.477,12.388
		c4.058,2.339,8.249,4.758,12.471,5.469c1.676,0.284,3.116,0.25,4.289-0.09c1.014-0.295,2.179-0.921,3.416-1.584
		c0.828-0.445,1.657-0.887,2.504-1.286c12.33-5.791,25.84-2.133,38.623,2.112c2.982,0.991,4.597,4.214,3.608,7.196
		c-0.992,2.984-4.205,4.597-7.199,3.608c-11.034-3.667-21.652-6.628-30.187-2.614c-0.664,0.313-1.312,0.664-1.962,1.013
		c-1.623,0.871-3.463,1.859-5.634,2.489c-1.676,0.486-3.463,0.73-5.342,0.73c-1.292,0-2.629-0.115-4.005-0.347
		c-6.243-1.049-11.568-4.122-16.268-6.833l-21.477-12.388C276.281,519.977,275.347,516.496,276.917,513.774z M1042.153,493.527
		c0.661,3.074-1.295,6.101-4.369,6.762l-10.92,2.347c-0.825,4.523-3.958,8.456-8.466,10.595c-2.201,1.045-4.528,1.565-6.799,1.565
		c-2.549,0-5.031-0.655-7.193-1.957c-1.659-1.001-2.927-2.193-4.041-3.245c-0.673-0.632-1.312-1.234-1.871-1.623
		c-1.534,1.715-4.025,2.386-6.284,1.519c-2.935-1.128-4.4-4.421-3.274-7.356c0.945-2.456,2.885-4.3,5.464-5.195
		c3.063-1.058,6.762-0.642,9.661,1.084c1.693,1.008,2.977,2.218,4.111,3.287c0.77,0.724,1.495,1.408,2.107,1.777
		c0.789,0.474,2.062,0.421,3.241-0.142c1.178-0.56,2.026-1.511,2.157-2.421l0.047-0.389c0.142-1.208,0.406-3.456,2.085-5.417
		c1.865-2.183,4.372-2.721,5.578-2.98l12.007-2.582C1038.473,488.509,1041.495,490.454,1042.153,493.527z M383.411,331.248
		c1.559-2.728,5.039-3.681,7.766-2.118l7.121,4.069c2.729,1.559,3.677,5.036,2.118,7.766c-1.051,1.839-2.971,2.87-4.947,2.87
		c-0.956,0-1.929-0.242-2.818-0.752l-7.121-4.069C382.799,337.454,381.851,333.977,383.411,331.248z M503.226,272.68
		c1.215-2.899,4.553-4.268,7.452-3.043l7.143,3.003c2.899,1.217,4.261,4.554,3.043,7.452c-0.914,2.179-3.027,3.49-5.25,3.49
		c-0.734,0-1.481-0.143-2.201-0.446l-7.143-3.003C503.371,278.914,502.009,275.577,503.226,272.68z M642.139,340.388
		c0.442-3.114,3.299-5.281,6.44-4.831l7.121,1.017c3.11,0.445,5.273,3.328,4.828,6.44c-0.403,2.839-2.841,4.889-5.626,4.889
		c-0.27,0-0.539-0.019-0.814-0.058l-7.121-1.017C643.857,346.383,641.694,343.499,642.139,340.388z M686.907,278.273
		c0.403-3.12,3.277-5.324,6.376-4.914l14.264,1.846c3.119,0.403,5.32,3.256,4.917,6.375c-0.37,2.87-2.818,4.963-5.637,4.963
		c-0.245,0-0.489-0.015-0.737-0.047l-14.27-1.846C688.702,284.246,686.504,281.392,686.907,278.273z M791.666,274.438
		c0.347-3.127,3.182-5.371,6.284-5.029l9.155,1.017c3.124,0.347,5.375,3.162,5.028,6.286c-0.322,2.911-2.788,5.064-5.648,5.064
		c-0.211,0-0.422-0.011-0.636-0.035l-9.155-1.017C793.57,280.376,791.319,277.562,791.666,274.438z M581.039,315.759v-7.122
		c0-3.144,2.549-5.692,5.692-5.692c3.144,0,5.692,2.549,5.692,5.692v7.122c0,3.144-2.549,5.692-5.692,5.692
		C583.588,321.452,581.039,318.903,581.039,315.759z M328.373,309.61c-2.224-2.222-2.224-5.827,0-8.049l1.017-1.017
		c2.224-2.224,5.826-2.224,8.049,0c2.224,2.222,2.224,5.827,0,8.049l-1.017,1.017c-1.112,1.112-2.568,1.668-4.025,1.668
		S329.484,310.722,328.373,309.61z M102.85,387.799l-2.927,19.348c-0.425,2.82-2.854,4.842-5.62,4.842
		c-0.284,0-0.57-0.022-0.859-0.065c-3.11-0.47-5.248-3.371-4.778-6.48l2.927-19.348c0.473-3.107,3.385-5.232,6.479-4.776
		C101.183,381.789,103.32,384.69,102.85,387.799z M120.233,393.189l-3.102,15.248c-0.55,2.699-2.921,4.56-5.573,4.56
		c-0.375,0-0.756-0.038-1.14-0.115c-3.082-0.627-5.07-3.633-4.444-6.712l3.102-15.251c0.628-3.078,3.616-5.07,6.712-4.443
		C118.871,387.102,120.858,390.108,120.233,393.189z M123.396,348.942l-1.017,9.157c-0.322,2.911-2.788,5.064-5.648,5.064
		c-0.211,0-0.422-0.011-0.636-0.035c-3.124-0.347-5.375-3.162-5.028-6.286l1.017-9.157c0.345-3.127,3.169-5.374,6.284-5.029
		C121.492,343.003,123.743,345.817,123.396,348.942z M148.752,405.499l6.256-19.281c0.97-2.986,4.169-4.625,7.174-3.656
		c2.988,0.971,4.625,4.183,3.655,7.172l-6.256,19.278c-0.781,2.407-3.013,3.937-5.414,3.937c-0.581,0-1.173-0.09-1.757-0.279
		C149.419,411.7,147.782,408.489,148.752,405.499z M165.548,362.045l4.069-8.138c1.406-2.809,4.82-3.955,7.638-2.546
		c2.813,1.406,3.952,4.825,2.546,7.638l-4.069,8.138c-0.998,1.994-3.007,3.148-5.097,3.148c-0.853,0-1.723-0.193-2.54-0.602
		C165.282,368.277,164.142,364.858,165.548,362.045z M179.885,391.372c1.504-2.763,4.961-3.78,7.721-2.279
		c2.76,1.504,3.783,4.96,2.279,7.721c-2.532,4.651-4.4,9.629-5.551,14.795c-0.592,2.652-2.943,4.455-5.551,4.455
		c-0.411,0-0.825-0.044-1.245-0.138c-3.068-0.684-5-3.726-4.316-6.794C174.604,402.932,176.847,396.956,179.885,391.372z
		 M132.935,741.557c-1.484,2.885-1.987,6.368-1.379,9.553c0.592,3.088-1.431,6.07-4.519,6.66c-0.361,0.069-0.723,0.103-1.076,0.103
		c-2.677,0-5.064-1.896-5.584-4.622c-1.095-5.72-0.231-11.724,2.435-16.902c1.44-2.793,4.881-3.891,7.666-2.457
		C133.274,735.331,134.374,738.764,132.935,741.557z M150.642,745.757l-5.092,16.279c-0.762,2.435-3.007,3.994-5.428,3.994
		c-0.564,0-1.137-0.086-1.704-0.264c-2.999-0.937-4.669-4.13-3.73-7.132l5.086-16.273c0.937-3.002,4.139-4.664,7.132-3.736
		C149.906,739.564,151.579,742.755,150.642,745.757z M176.302,761.958c-0.862,8.058-2.674,16.023-5.387,23.675
		c-0.825,2.335-3.021,3.794-5.364,3.794c-0.631,0-1.273-0.106-1.901-0.331c-2.963-1.048-4.514-4.303-3.463-7.265
		c2.413-6.815,4.027-13.911,4.797-21.085c0.334-3.127,3.177-5.384,6.265-5.053C174.376,756.027,176.638,758.834,176.302,761.958z
		 M205.7,779.883l-4.069,18.311c-0.589,2.654-2.941,4.458-5.551,4.458c-0.409,0-0.826-0.044-1.24-0.136
		c-3.068-0.681-5.006-3.722-4.322-6.79l4.069-18.311c0.681-3.071,3.736-5,6.79-4.322C204.446,773.773,206.384,776.814,205.7,779.883
		z M320.601,840.705v-9.155c0-3.143,2.549-5.692,5.692-5.692s5.692,2.549,5.692,5.692v9.155c0,3.143-2.549,5.692-5.692,5.692
		S320.601,843.848,320.601,840.705z M309.606,830.532v37.642c0,3.144-2.549,5.692-5.692,5.692s-5.692-2.549-5.692-5.692v-37.642
		c0-3.143,2.549-5.692,5.692-5.692S309.606,827.389,309.606,830.532z M292.31,821.377v33.573c0,3.144-2.549,5.692-5.692,5.692
		s-5.692-2.549-5.692-5.692v-33.573c0-3.143,2.549-5.692,5.692-5.692S292.31,818.233,292.31,821.377z M953.579,799.933v26.53
		c0,3.143-2.549,5.692-5.692,5.692c-3.144,0-5.692-2.549-5.692-5.692v-26.53c0-3.144,2.549-5.692,5.692-5.692
		C951.03,794.241,953.579,796.79,953.579,799.933z M982.065,812.213v64.099c0,3.143-2.549,5.692-5.692,5.692
		c-3.143,0-5.692-2.549-5.692-5.692v-64.099c0-3.143,2.549-5.692,5.692-5.692C979.516,806.521,982.065,809.069,982.065,812.213z
		 M1006.482,815.262v47.826c0,3.143-2.549,5.692-5.692,5.692c-3.144,0-5.692-2.549-5.692-5.692v-47.826
		c0-3.143,2.549-5.692,5.692-5.692C1003.933,809.57,1006.482,812.118,1006.482,815.262z M1028.862,798.963v68.193
		c0,3.144-2.549,5.692-5.692,5.692c-3.143,0-5.692-2.549-5.692-5.692v-68.193c0-3.143,2.549-5.692,5.692-5.692
		C1026.313,793.271,1028.862,795.82,1028.862,798.963z M1050.228,785.736v63.107c0,3.144-2.549,5.692-5.692,5.692
		c-3.144,0-5.692-2.549-5.692-5.692v-63.107c0-3.144,2.549-5.692,5.692-5.692C1047.679,780.044,1050.228,782.593,1050.228,785.736z
		 M1069.556,776.539v63.148c0,3.143-2.549,5.692-5.692,5.692c-3.144,0-5.692-2.549-5.692-5.692v-63.148
		c0-3.143,2.549-5.692,5.692-5.692C1067.007,770.847,1069.556,773.396,1069.556,776.539z M1087.869,767.161v63.371
		c0,3.144-2.549,5.692-5.692,5.692c-3.144,0-5.692-2.549-5.692-5.692v-63.371c0-3.144,2.549-5.692,5.692-5.692
		C1085.32,761.469,1087.869,764.018,1087.869,767.161z M1110.249,770.497v42.742c0,3.143-2.549,5.692-5.692,5.692
		s-5.692-2.549-5.692-5.692v-42.742c0-3.143,2.549-5.692,5.692-5.692S1110.249,767.353,1110.249,770.497z M438.613,518.417v-89.734
		c0-3.144,2.549-5.692,5.692-5.692s5.692,2.549,5.692,5.692v89.734c0,3.144-2.549,5.692-5.692,5.692S438.613,521.56,438.613,518.417
		z M458.958,514.163V422.58c0-3.144,2.549-5.692,5.692-5.692s5.692,2.549,5.692,5.692v91.583c0,3.144-2.549,5.692-5.692,5.692
		S458.958,517.306,458.958,514.163z M486.427,499.257v-67.522c0-3.144,2.549-5.692,5.692-5.692s5.692,2.549,5.692,5.692v67.522
		c0,3.144-2.549,5.692-5.692,5.692S486.427,502.4,486.427,499.257z M501.689,498.144v-66.409c0-3.144,2.549-5.692,5.692-5.692
		s5.692,2.549,5.692,5.692v66.409c0,3.144-2.549,5.692-5.692,5.692S501.689,501.287,501.689,498.144z M518.983,494.927v-71.33
		c0-3.144,2.549-5.692,5.692-5.692c3.143,0,5.692,2.549,5.692,5.692v71.33c0,3.144-2.549,5.692-5.692,5.692
		C521.531,500.619,518.983,498.07,518.983,494.927z M539.328,491.873v-72.346c0-3.144,2.549-5.692,5.692-5.692
		c3.144,0,5.692,2.549,5.692,5.692v72.346c0,3.144-2.549,5.692-5.692,5.692C541.877,497.566,539.328,495.017,539.328,491.873z
		 M673.619,504.103v-94.749c0-3.144,2.549-5.692,5.692-5.692c3.144,0,5.692,2.549,5.692,5.692v94.749
		c0,3.144-2.549,5.692-5.692,5.692C676.167,509.795,673.619,507.246,673.619,504.103z M712.278,481.615v-71.244
		c0-3.144,2.549-5.692,5.692-5.692s5.692,2.549,5.692,5.692v71.244c0,3.144-2.549,5.692-5.692,5.692
		S712.278,484.758,712.278,481.615z M733.64,468.439v-59.085c0-3.144,2.549-5.692,5.692-5.692c3.144,0,5.692,2.549,5.692,5.692
		v59.085c0,3.144-2.549,5.692-5.692,5.692C736.189,474.131,733.64,471.582,733.64,468.439z M924.901,457.282v-18.425
		c0-3.144,2.549-5.692,5.692-5.692c3.143,0,5.692,2.549,5.692,5.692v18.425c0,3.144-2.549,5.692-5.692,5.692
		C927.449,462.974,924.901,460.426,924.901,457.282z M883.19,439.875c0-3.144,2.549-5.692,5.692-5.692
		c3.144,0,5.692,2.549,5.692,5.692v29.502c0,3.144-2.549,5.692-5.692,5.692c-3.143,0-5.692-2.549-5.692-5.692V439.875z
		 M945.246,402.233v-33.588c0-3.144,2.549-5.692,5.692-5.692c3.144,0,5.692,2.549,5.692,5.692v33.588
		c0,3.144-2.549,5.692-5.692,5.692C947.795,407.925,945.246,405.376,945.246,402.233z M969.663,453.099v-57.987
		c0-3.144,2.549-5.692,5.692-5.692c3.144,0,5.692,2.549,5.692,5.692v57.987c0,3.144-2.549,5.692-5.692,5.692
		C972.212,458.791,969.663,456.243,969.663,453.099z M1014.426,441.229v-55.274c0-3.144,2.549-5.692,5.692-5.692
		c3.143,0,5.692,2.549,5.692,5.692v55.274c0,3.144-2.549,5.692-5.692,5.692C1016.974,446.922,1014.426,444.373,1014.426,441.229z
		 M1033.757,419.731v-40.896c0-3.144,2.549-5.692,5.692-5.692c3.144,0,5.692,2.549,5.692,5.692v40.896
		c0,3.144-2.549,5.692-5.692,5.692C1036.305,425.423,1033.757,422.874,1033.757,419.731z M867.105,431.735v36.751
		c0,3.144-2.549,5.692-5.692,5.692c-3.144,0-5.692-2.549-5.692-5.692v-36.751c0-3.144,2.549-5.692,5.692-5.692
		C864.557,426.043,867.105,428.591,867.105,431.735z M1058.171,419.606v-59.084c0-3.144,2.549-5.692,5.692-5.692
		c3.143,0,5.692,2.549,5.692,5.692v59.084c0,3.144-2.549,5.692-5.692,5.692C1060.72,425.298,1058.171,422.749,1058.171,419.606z"/>
	<path fill="#FFC92F" d="M880.563,793.637c-5.293,1.48-7.485,2.476-8.652,3.529c-0.142,0.114-0.285,0.256-0.427,0.398
		c-22.342,24.05-23.396,28.12-23.736,29.429l-0.257,1.11c-1.024,4.127-2.931,11.783-7.029,17.618
		c-1.594,0.37-7.713-3.586-10.73-8.851c-6.005-10.502-33.414-20.947-41.695-23.908c-4.668-1.679-7.001-3.501-8.141-4.867
		c1.026-0.626,2.107-1.195,3.103-1.822c9.989-6.119,18.471-11.385,25.7-15.938c7.286,0.712,32.817,3.159,49.665,3.159
		c3.045,0,6.801,0.029,11.07,0.085C872.823,793.608,876.607,793.637,880.563,793.637z"/>
</g>
</svg>
