<?xml version="1.0" encoding="utf-8"?>
<!-- Generator: Adobe Illustrator 17.0.0, SVG Export Plug-In . SVG Version: 6.00 Build 0)  -->
<!DOCTYPE svg PUBLIC "-//W3C//DTD SVG 1.1//EN" "http://www.w3.org/Graphics/SVG/1.1/DTD/svg11.dtd" [
	<!ENTITY ns_flows "http://ns.adobe.com/Flows/1.0/">
	<!ENTITY ns_extend "http://ns.adobe.com/Extensibility/1.0/">
	<!ENTITY ns_ai "http://ns.adobe.com/AdobeIllustrator/10.0/">
	<!ENTITY ns_graphs "http://ns.adobe.com/Graphs/1.0/">
	<!ENTITY ns_vars "http://ns.adobe.com/Variables/1.0/">
	<!ENTITY ns_imrep "http://ns.adobe.com/ImageReplacement/1.0/">
	<!ENTITY ns_sfw "http://ns.adobe.com/SaveForWeb/1.0/">
	<!ENTITY ns_custom "http://ns.adobe.com/GenericCustomNamespace/1.0/">
	<!ENTITY ns_adobe_xpath "http://ns.adobe.com/XPath/1.0/">
]>
<svg version="1.1" id="Layer_1" xmlns:x="&ns_extend;" xmlns:i="&ns_ai;" xmlns:graph="&ns_graphs;"
	 xmlns="http://www.w3.org/2000/svg" xmlns:xlink="http://www.w3.org/1999/xlink" xmlns:a="http://ns.adobe.com/AdobeSVGViewerExtensions/3.0/"
	 x="0px" y="0px" width="2047.7px" height="2048px" viewBox="0 0 2047.7 2048" style="enable-background:new 0 0 2047.7 2048;"
	 xml:space="preserve">
<style type="text/css">
	.st0{fill:#FFFFFF;}
	.st1{fill:#0A0909;}
	.st2{fill:#0B0A0A;}
	.st3{fill:#0C0C0C;}
</style>
<metadata>
	<sfw  xmlns="&ns_sfw;">
		<slices></slices>
		<sliceSourceBounds  height="1359.9" width="1666.4" x="-550.3" y="-432.1" bottomLeftOrigin="true"></sliceSourceBounds>
	</sfw>
</metadata>
<g>
	<g>
		<path class="st0" d="M1830.9,1413.9c33,23.7,51.1,49.3,51.1,76c0,121.3-372.1,219.6-831,219.6s-831-98.3-831-219.6
			c0-29.5,22-57.6,61.9-83.3"/>
		<g>
			<path class="st1" d="M1829.9,1415.7c27.5,20,56.8,50.2,48.6,87.2c-3.5,16-13.6,29.8-24.9,41.3c-34.6,35.3-84.2,55.9-129.7,72.5
				c-69,25.3-141.3,41.5-213.5,54.3c-92.1,16.3-185.4,25.9-278.8,31.4c-199.5,11.8-401.9,5.8-599.6-24.7c-76-11.7-151.8-27.3-225-51
				c-50.5-16.3-103.3-36.4-145-70.1c-16.1-13-31.3-29.3-37.5-49.5c-13.2-42.9,26.3-77.8,58.3-98.7c2.2-1.4,0.1-4.9-2-3.5
				c-29.5,19.2-63.1,47.4-62.9,85.9c0.1,14.8,6.1,28.8,14.4,40.7c24.7,35.4,67.8,56.9,106.2,73.7c61.9,27.2,128.1,44.5,194.1,58.4
				c86,18.2,173.3,29.6,260.8,37.2c200.9,17.4,404.8,15,605.1-9.3c81.3-9.9,162.4-23.7,241.6-44.6c57.7-15.3,116.1-34.1,168.1-64.1
				c26.2-15.1,53.4-34.5,67.7-61.9c5.7-10.9,8.5-22.9,7.8-35.1c-1.6-31.7-28-56.2-51.9-73.6
				C1829.9,1410.7,1827.9,1414.2,1829.9,1415.7L1829.9,1415.7z"/>
		</g>
	</g>
	<g>
		<path class="st0" d="M1417.6,1028.5c31.6-2.7,6-66.6-34.1-24.9c28.1-48.6-41.2-128.1-77.2-76.9c45.7-66.6-58-133.2-101.1-72.7
			c26.1-106-127.4-116.9-139.9-34.3c-18.5-74.2-115.4-52.6-103.3,25.1c-36.3-50.9-104.2,5.2-62,60.4c-38.9-31.7-76.6,26.9-35.6,54.3
			c-51-22.4-76.7,57.3-25.1,69"/>
		<g>
			<path class="st1" d="M1417.6,1029.2c15.8-1.3,18.4-18.1,11.2-29.8c-3.8-6.2-10.2-10.3-17.4-11c-11.2-1.1-21.4,6.9-28.8,14.3
				c0.6,0.5,1.3,1,1.9,1.5c14.4-25.5,3.8-57.6-15.1-77.8c-8.5-9.1-19.9-16.4-32.6-17.5c-13.2-1.1-24.3,6.8-31.7,17.1
				c0.7,0.4,1.5,0.9,2.2,1.3c9.8-14.5,14.1-31.6,9.7-48.7c-3.9-15.2-14.4-27.9-27-36.8c-12.9-9-29-13.9-44.8-12.7
				c-16.9,1.3-31.5,10.6-41.3,24.2c0.8,0.3,1.6,0.7,2.5,1c6.9-28.6,1.5-58.7-23.5-76.7c-21-15.1-50.2-17.6-74.4-9.5
				c-23.3,7.8-40.7,26.6-44.6,51.1c0.9,0,1.8,0,2.7,0c-4-15.5-12.1-29.8-25.7-38.8c-11.4-7.5-25.5-9.5-38.7-6.7
				c-13.5,2.9-25.2,11.5-32.9,22.9c-9.5,14.2-11.2,31.9-8.7,48.4c0.9-0.4,1.7-0.7,2.6-1.1c-7.5-10.3-18-18.8-31-20.4
				c-11.2-1.3-22,2.4-30.6,9.5c-9,7.4-14.8,18.7-16.1,30.2c-1.7,15.5,4,30.2,13.2,42.5c0.8-0.6,1.5-1.2,2.3-1.7
				c-8-6.3-17.8-10.9-28.2-9.3c-8.8,1.4-16.2,6.5-21.3,13.8c-12.7,17.9-4.8,40.4,12.1,52.1c0.5-0.8,1-1.7,1.5-2.5
				c-10.9-4.7-22.7-5.8-33.6-0.6c-9.3,4.4-16,13.2-19.4,22.8c-3.5,9.6-3.3,20.4,0.8,29.7c4.7,10.8,15,17,26,19.6
				c1.7,0.4,2.4-2.2,0.7-2.6c-10.2-2.4-19.1-8.2-23.9-17.7c-4.2-8.5-4-18.6-1.2-27.4c2.8-8.8,8.9-16.5,16.9-21.1
				c10-5.7,21.9-4.5,32.2-0.2c1.7,0.7,3-1.4,1.5-2.5c-15.5-10.7-22.1-29.7-12.1-46.6c4.1-6.9,10.9-11.9,18.7-13.7
				c9.8-2.2,19.7,2.2,27.3,8.2c1.2,0.9,3.3-0.3,2.3-1.7c-15.1-20.2-19.1-48.3,0.3-67.2c7.4-7.3,17.5-11.3,27.9-10.9
				c13.1,0.4,24,9,31.4,19.2c1,1.3,2.9,0.5,2.6-1.1c-2.3-15.7-0.6-31.8,7.9-45.5c6.9-11.1,18.2-19,30.8-22.2
				c12.4-3.1,25.7-0.9,36.6,5.7c13.5,8.2,21.4,22.7,25.2,37.6c0.3,1.3,2.5,1.4,2.7,0c9.2-58.2,93-71.4,127.6-28.1
				c13.9,17.4,14.7,40.8,9.7,61.6c-0.4,1.6,1.6,2.3,2.5,1c9.6-13.2,23.6-21.7,40-22.9c14.7-1.1,29.4,3.7,41.6,11.8
				c12.4,8.2,22.2,20.5,26.4,34.8c4.9,16.6,0.2,33.6-9.2,47.7c-0.9,1.4,1.3,2.6,2.2,1.3c7.2-10.1,17.6-16.8,30.3-15.8
				c12,1,22.7,8.9,30.7,17.4c17.8,19,27.5,50,14.1,74c-0.7,1.2,0.9,2.5,1.9,1.5c11.1-11.4,29.9-21,41.7-5
				c7.5,10.2,6.2,26.5-8.5,28.4C1416.7,1027.9,1416.7,1029.3,1417.6,1029.2L1417.6,1029.2z"/>
		</g>
	</g>
	<g>
		<g>
			<path d="M910.5,961c-3.7-8.2-6.1-17.8-2.2-26.5c4.1-9.2,14.7-10.8,23.6-9.8c0.9,0.1,1.5-1.1,1-1.8c-6.6-10.7-6.8-22.9,3.3-31.4
				c4-3.3,9.1-5.2,14.1-6c6-1,11.2,0.7,17,2c1,0.2,1.5-1.1,0.7-1.6c-9.6-7-25.1-2.8-33.6,3.9c-11.2,8.8-10.5,23.3-3.6,34.5
				c0.3-0.6,0.7-1.2,1-1.8c-9.8-1.1-19.8,1.1-25,10.2c-5.1,9-2.1,20.6,2.6,29C909.9,962.3,910.8,961.7,910.5,961L910.5,961z"/>
		</g>
	</g>
	<g>
		<g>
			<path d="M1291.7,955.9c2.6-7.2,2.6-15.8-2.3-22.1c-5.6-7.1-14.9-8.6-23.2-6c-1.6,0.5-0.9,2.8,0.7,2.5c7.4-1.5,14.6-1.5,20.1,4.5
				c5,5.5,5,13.9,3.2,20.6C1289.8,956.5,1291.3,956.9,1291.7,955.9L1291.7,955.9z"/>
		</g>
	</g>
	<g>
		<polygon class="st1" points="1212.6,1170.1 1218.1,1174.5 1597.9,803 1585.9,788.5 		"/>
		<polygon class="st1" points="1264.1,1209.5 1270.7,1211.6 1480.2,721.3 1463.3,714.3 		"/>
	</g>
	<g>
		<path class="st0" d="M1324.4,1281.8c95.3-94.4,101.9-244.1,101.9-244.1s-521.4,16.2-598.5-1.6c0,0-4.3,93.1,46.5,181.5"/>
		<g>
			<path class="st1" d="M1325.5,1282.8c57.8-57.6,88.4-138.7,99.6-218.3c1.3-8.9,2.4-17.9,2.8-26.9c0-0.8-0.7-1.5-1.5-1.5
				c-28.6,0.9-57.3,1.6-86,2.3c-64.5,1.6-129,2.9-193.5,3.6c-68.2,0.8-136.3,1.3-204.5,0c-23.5-0.5-47.1-1.1-70.5-2.6
				c-14.5-0.9-29.4-1.6-43.6-4.9c-1-0.2-1.9,0.4-1.9,1.4c-0.9,19.3,1.4,39,4.2,58c6.6,43.5,20.6,86,42.5,124.2
				c1,1.7,3.6,0.2,2.6-1.5c-21.8-38.1-35.4-80.2-42.2-123.5c-2.9-18.7-5-38.2-4.1-57.2c-0.6,0.5-1.3,1-1.9,1.4
				c16,3.6,32.7,4.3,49,5.3c26.8,1.5,53.6,2.2,80.4,2.6c69,1.1,138.1,0.5,207.2-0.4c62.8-0.9,125.6-2.1,188.5-3.7
				c24.6-0.6,49.2-1.3,73.8-2c-0.5-0.5-1-1-1.5-1.5c-0.8,17.7-3.8,35.4-7.2,52.8c-7.9,39.8-20.8,78.8-39.5,114.8
				c-14.4,27.7-32.6,53.4-54.8,75.5C1322,1282.1,1324.1,1284.2,1325.5,1282.8L1325.5,1282.8z"/>
		</g>
	</g>
	<g>
		<path class="st0" d="M1017.6,1341.9c20.7,7.9,32.9,11.2,58.5,14.7"/>
		<g>
			<path class="st1" d="M1017.2,1343.4c19.1,7.3,38.3,11.9,58.5,14.7c1.9,0.3,2.7-2.6,0.8-2.9c-20.2-2.8-39.4-7.4-58.5-14.7
				C1016.2,1339.8,1015.4,1342.7,1017.2,1343.4L1017.2,1343.4z"/>
		</g>
	</g>
	<g>
		<path class="st1" d="M1409.3,1103.4c-29.1,8.9-59.6,14.1-89.6,18.7c-80.4,12.5-162,16.5-243.2,14c-76.5-2.3-152.8-10.6-228.1-24.2
			c-3.7-0.7-2.2-6.2,1.4-5.6c107.3,19.3,216.7,27.8,325.7,23.7c65-2.5,130.3-9.3,194-22.8c12.8-2.7,25.7-5.5,38.2-9.4
			C1411.2,1096.8,1412.9,1102.3,1409.3,1103.4L1409.3,1103.4z"/>
	</g>
	<g>
		<path class="st1" d="M1396.2,1140.8c-28.3,10.1-58.5,15.9-88,21c-79.5,13.9-160.8,17.6-241.4,14c-71.1-3.2-141.9-12.5-211.6-26.9
			c-3.6-0.7-2.2-6.3,1.4-5.6c105.3,21.7,213.1,31.6,320.5,26.7c62.2-2.8,124.6-10.4,185-25.5c10.9-2.7,21.9-5.6,32.5-9.3
			C1398.1,1134,1399.7,1139.6,1396.2,1140.8L1396.2,1140.8z"/>
	</g>
	<g>
		<path class="st0" d="M1132.7,1556.2c74.1,28.9,182.9,40.7,263.6,33.6c63.8-6.8,134.8-20.4,186-58.4c32.2-24.1,54.3-75,12.8-103.5
			c-80.5-52.4-206.9,37.4-297.7,13.3c-72.7-18.9-158.9-54.3-213.2,18.5C1051.2,1503,1090.8,1539.3,1132.7,1556.2z"/>
		<g>
			<path class="st1" d="M1132.3,1557.7c48.9,19,101.6,28.2,153.7,32.9c52.7,4.7,105.2,3.2,157.4-5.6c27.2-4.5,54.1-11,79.9-20.6
				c23.2-8.7,47-20.1,65.8-36.5c15-13.1,26.7-31.5,29.6-51.4c3-20.3-6.4-38.2-22.9-49.8c-34.3-24-81.3-18-119.7-10.1
				c-45.1,9.3-89.4,25.1-135.8,27.2c-10.7,0.5-21.4,0-32-1.7c-10.7-1.7-21.1-5.1-31.5-8c-22.2-6.2-44.5-12.6-67.3-16.5
				c-20.9-3.6-42.5-4.9-63.5-0.5c-21.5,4.5-40.4,15.9-55.2,32c-8.6,9.3-16.2,19.9-19.3,32.3c-2.7,10.5-0.9,21.3,3.8,31
				C1086.2,1534.6,1110.5,1548.7,1132.3,1557.7c1.8,0.7,2.6-2.2,0.8-2.9c-22.3-9.1-46.7-23.8-56.5-47c-10.6-25.3,7.6-49.6,25.8-65.7
				c36.1-31.8,86-27,129.4-16.8c22.3,5.2,44.2,12,66.3,17.8c20.1,5.2,41.4,4.6,61.8,2.1c45.6-5.7,89.2-21.4,134.4-28.9
				c21.3-3.5,43.4-5.1,64.8-1c20.8,4,43.2,14.3,53,34.2c9.7,19.7,1.4,42.9-10.2,59.7c-14.1,20.3-36.8,33.3-58.7,43.7
				c-25.2,11.9-52.2,19.6-79.3,25.3c-26.5,5.6-53.6,9.5-80.6,11.2c-54.2,3.4-109.2-0.8-162.5-10.6c-29.8-5.5-59.4-13-87.6-24
				C1131.3,1554.1,1130.6,1557,1132.3,1557.7z"/>
		</g>
	</g>
	<g>
		<path class="st1" d="M1118.6,1437.2c-34,2.7-117.5,8.7-90,71c25.1,56.8,169.2,8.5,227.2,6.7c78.4-2.4,153.3-8.1,230.5,4.9
			c44.6,7.2,197.6,45.2,169-54.6c-11.5-42.3-92.3-62-131.5-60.8"/>
	</g>
	<g>
		<path class="st0" d="M1546.4,1333.2c-74-26.9-182.8-37.7-263.5-30.9c-63.8,6.5-134.8,19.3-186.1,54.9
			c-32.2,22.6-54.4,70.2-13,96.7c80.4,48.8,206.9-35.4,297.7-13c72.6,17.5,158.8,50.4,213.2-17.7
			C1627.8,1382.8,1588.3,1349,1546.4,1333.2z"/>
		<g>
			<path class="st1" d="M1546.8,1331.8c-49.2-17.8-101.7-26.2-153.6-30.4c-52.9-4.3-105.5-2.7-157.8,5.6
				c-27.3,4.3-54.4,10.5-80.6,19.7c-23.2,8.2-47.1,19-66,34.9c-14.8,12.5-26.8,30.4-28.9,50c-2.3,20.8,10.9,37.3,28.5,46.7
				c37.9,20.1,84,12.6,124.1,4.2c45.5-9.6,91.1-24.6,138-23.9c22.6,0.4,44.1,7.2,65.8,12.7c22.5,5.8,45.2,11.2,68.4,13.6
				c21.7,2.2,44,1.2,64.7-6.4c21.3-7.8,40.6-23.4,52.4-42.7C1626.4,1375.7,1579.1,1344.1,1546.8,1331.8c-1.8-0.7-2.6,2.2-0.8,2.9
				c22.1,8.4,48.1,22.4,57.2,45.7c9.8,25.1-12.7,49.2-31.5,62.9c-38.9,28.3-90.1,20.5-133.9,10.3c-22.2-5.2-44.3-12.7-66.9-16.3
				c-21-3.3-42.5-1.6-63.4,1.6c-46.8,7.1-91.9,22.9-139.1,27.8c-21.2,2.2-42.9,1.8-63.3-4.6c-21-6.6-41.6-20.9-42.5-44.8
				c-0.8-21.3,13.6-41.3,29.2-54.4c20.2-17,46.7-27.8,71.5-36c26.3-8.7,53.6-14.2,81-18.3c26.3-3.9,52.6-6.2,79.1-6.6
				c54.7-0.8,110,4.5,163.5,16c20,4.3,39.8,9.7,59.1,16.7C1547.8,1335.3,1548.6,1332.4,1546.8,1331.8z"/>
		</g>
	</g>
	<g>
		<g>
			<path class="st0" d="M1049.3,1489.9c8.4,17,28.7,19.8,45.7,18c20.9-2.2,40.9-9.6,61.2-14.6c9.1-2.3,18.3-4.1,27.7-4.1
				c12.2,0,24.5,2.7,36.6,4.5c11.4,1.7,22.7,3,34.2,2.3c14.4-0.8,27.9-5.1,41.8-8.5c12.4-3,24.9-4.4,37.6-3.5
				c13,0.9,25.7,4.6,38.1,8.2c12.8,3.8,25.4,6.1,38.8,5.1c11.7-0.8,23.2-3.8,34.5-6.8c21.8-5.8,44.4-10.8,66.3-4.5
				c20.1,5.7,38.6,14.9,59.6,17.5c19.7,2.4,38.7-4,52-19c6.1-6.9-4-17.1-10.1-10.1c-7.1,8.1-16,13.8-26.8,15.1
				c-10.4,1.3-20.9-0.7-30.9-3.4c-19.2-5.2-36.9-14-56.8-16.2c-24.7-2.7-48,5.9-71.6,11.3c-11.4,2.6-23.2,3.9-34.8,2.2
				c-13.8-2-27-7.4-40.6-10.2c-11.9-2.4-24-3.3-36.1-2.2c-14.6,1.3-28.3,5.7-42.4,9.1c-24.4,5.8-48,1-72.4-2.1
				c-10.8-1.3-20.7-1.8-31.5-0.3c-10.1,1.4-20,4.2-29.9,6.9c-18.8,5.3-38.6,12.5-58.5,11.4c-9.7-0.5-17.5-5.1-23.9-12.2
				C1053.1,1479.6,1046.9,1485.1,1049.3,1489.9L1049.3,1489.9z"/>
		</g>
	</g>
	<g>
		<g>
			<g>
				<path d="M1126,1414.1c-2.8,0.1-5.5,0.9-8.2,1.7c-2.5,0.7-6.9,1.4-8.3,3.8c-1.1,2,0,4.1,2,4.9c2.3,0.9,6-1.3,8.1-2.1
					c2.3-0.9,5.3-2.2,7.1-3C1129.3,1418.2,1129.3,1413.9,1126,1414.1L1126,1414.1z"/>
			</g>
		</g>
		<g>
			<g>
				<g>
					<path d="M1186.9,1358.4c0.8,3.4,2.2,6.7,3.6,9.9c1,2.4,2.2,7,5.1,7.6c1.3,0.3,3-0.1,3.6-1.5c1.3-3.1-1.1-6.2-2.5-8.9
						c-1.6-3.1-3.2-6.3-5-9.2C1190.2,1353.7,1186.2,1355.5,1186.9,1358.4L1186.9,1358.4z"/>
				</g>
			</g>
			<g>
				<g>
					<path d="M1456.2,1396.3c-2.4,2.4-4.2,5.3-6,8.2c-1.8,2.9-5.3,6.9-3.9,10.4c0.6,1.4,2.4,1.7,3.7,1.5c2.8-0.5,4.6-5.6,5.7-7.8
						c1.6-3,3.1-6,4.7-9C1461.8,1396.9,1458.4,1394.1,1456.2,1396.3L1456.2,1396.3z"/>
				</g>
			</g>
			<g>
				<g>
					<path d="M1541.8,1418.3c0.8,3.1,2.2,6.1,3.5,9c1.3,2.8,2.7,7.7,5.9,8.8c1.7,0.6,3.6-0.6,4-2.3c0.7-3-2.3-6.8-3.7-9.3
						c-1.6-2.8-3.2-5.5-4.8-8.3C1545.1,1413.6,1541.1,1415.3,1541.8,1418.3L1541.8,1418.3z"/>
				</g>
			</g>
			<g>
				<g>
					<path d="M1291.8,1398.7c0.9,3,2.3,5.9,3.7,8.7c1.3,2.6,2.9,7.6,6,8.5c1.6,0.5,3.7-0.6,4-2.3c0.7-3-2.3-6.5-3.8-9
						c-1.6-2.7-3.3-5.4-5-8C1295.1,1394.2,1290.9,1395.7,1291.8,1398.7L1291.8,1398.7z"/>
				</g>
			</g>
			<g>
				<g>
					<path d="M1355.5,1334.3c-4.6-1-9.3-1.3-14-1.7c-3.5-0.3-9.6-1.8-11.1,2.4c-1.7,4.8,6.8,4.3,9.2,4.4c5.1,0.2,10.2,0.3,15.2,0.1
						C1357.7,1339.4,1358.6,1334.9,1355.5,1334.3L1355.5,1334.3z"/>
				</g>
			</g>
			<g>
				<g>
					<path d="M1533,1353.2c-2.7,0.1-5.3,0.7-7.9,1.3c-2.3,0.6-6.5,1-8.1,2.9c-1.6,1.8-1.1,5,1.5,5.6c2.4,0.6,5.5-1,7.8-1.8
						c2.4-0.8,5.4-2,7.4-2.8C1536.4,1357.4,1536.3,1353.1,1533,1353.2L1533,1353.2z"/>
				</g>
			</g>
		</g>
	</g>
	<g>
		<g>
			<path d="M1403.1,1545.9c-1.6,1.5-2.8,3.3-4,5.1c-1.2,1.8-2.6,3.7-3.4,5.7c-1.8,4.1,3.5,7.3,6.1,3.5c1.1-1.7,2-3.6,2.9-5.4
				c0.5-1,1.1-2.1,1.6-3.1c0.5-0.9,1-2.1,1.1-2.5C1408.5,1546.4,1405.4,1543.7,1403.1,1545.9L1403.1,1545.9z"/>
		</g>
	</g>
	<g>
		<g>
			<path d="M1487.9,1540.1c0.1,0.3,0.3,1.5,0.6,2.3c0.5,1.2,0.9,2.4,1.4,3.5c0.9,2,1.7,4.3,3,6.1c0.6,0.9,1.8,1.9,3,1.7
				c0.9-0.1,1.8-0.3,2.5-1c1.1-1.3,1.2-2.7,0.5-4.3c-0.8-1.9-2-3.7-3-5.5c-1-1.7-2.3-3.8-3.1-5
				C1491.1,1535.5,1487.4,1537.1,1487.9,1540.1L1487.9,1540.1z"/>
		</g>
	</g>
	<g>
		<g>
			<path d="M1210.9,1544.9c0.5,2,1.3,3.8,2.1,5.6c0.9,1.9,1.8,4.1,3.1,5.9c1,1.4,2.3,1.9,4,1.6c0.5-0.1,1.2-0.5,1.6-0.9
				c1.1-1.3,1.3-2.7,0.5-4.3c-0.8-1.8-2.1-3.5-3.1-5.3c-0.6-1-1.2-1.9-1.8-2.9c-0.2-0.3-0.4-0.7-0.7-1c-0.2-0.2-1-1.3-0.7-0.9
				C1214,1540.5,1210.2,1541.8,1210.9,1544.9L1210.9,1544.9z"/>
		</g>
	</g>
	<g>
		<g>
			<path d="M1315,1552c-2.7-0.7-5.4-1-8.2-1.3c-2.9-0.3-6.7-1.2-9.5,0.1c-2.3,1.1-2.1,4.7,0,5.8c2.4,1.3,6.1,0.8,8.7,0.8
				c2.7,0,5.5,0,8.2-0.2C1317.1,1557,1318,1552.7,1315,1552L1315,1552z"/>
		</g>
	</g>
	<g>
		<g>
			<g>
				<path class="st1" d="M812.6,1511c-9.7,1.2-19.7,2.2-30.1,3.1c-55.2,4.4-102,1.4-139-9c-30.4-8.5-54.4-22-71.5-40.1
					c-18-19.1-24.9-39.9-27.5-54c-2.8-15.3-1.4-25.9-1.4-26.4l1.9,0.3c0,0.1-1.4,10.8,1.4,25.8c2.6,13.8,9.4,34.2,27,52.9
					c38,40.2,108.3,56.5,208.9,48.5c57-4.6,104-15.1,139.7-31.2c28.7-13,50.2-29.7,63.9-49.6c25.2-36.6,15.2-72.1,15.1-72.5l1.9-0.6
					c0.1,0.4,2.7,9.3,2.1,22.9c-0.5,12.6-4,31.6-17.4,51.2c-13.9,20.2-35.7,37.1-64.7,50.3C893.5,1496,856.5,1505.5,812.6,1511z"/>
				<g>
					<path class="st2" d="M812.6,1510c-55.5,6.9-114.4,9.2-168.8-5.9c-25.6-7.1-50.2-19-69.1-37.9c-18.7-18.6-29.6-44-30.8-70.2
						c-0.2-3.8-0.2-7.7,0.3-11.4c-0.4,0.3-0.8,0.6-1.3,1c1.8,0.3,1.2-1.2,1.1,0.3c-0.2,1.5-0.2,3.1-0.2,4.7
						c-0.2,6.2,0.4,12.4,1.4,18.5c1.7,10.5,5.2,20.7,9.9,30.2c9.3,18.8,24.6,33.9,42.2,45.1c36.5,23.2,82.1,29.4,124.6,30.7
						c29.6,0.9,59.2-1.1,88.6-4.6c26.8-3.2,53.4-8.2,79.3-16.1c46.5-14.2,96.3-41.2,110.9-91.1c4-13.8,5.5-30.4,1.5-44.4
						c-0.2,0.4-0.5,0.8-0.7,1.2c0.6-0.2,1.2-0.4,1.9-0.6c-0.4-0.2-0.8-0.5-1.2-0.7c5,17.5,1.7,37.8-4.9,54.4
						c-8.8,22.1-26,39.5-45.4,52.7C911.2,1493.2,860.3,1503.9,812.6,1510c-1.3,0.2-1.3,2.2,0,2c49.3-6.3,101.1-17.5,142.6-46.3
						c19-13.2,34.7-30.7,43.7-52.1c7-16.7,10-37.8,4.9-55.5c-0.1-0.5-0.7-0.9-1.2-0.7c-0.6,0.2-1.2,0.4-1.9,0.6
						c-0.5,0.2-0.8,0.7-0.7,1.2c4.3,15.3,2,33.1-2.9,47.9c-8.8,26.5-29.7,46.7-53,61.1c-46.5,28.7-104.4,38-158,42.6
						c-50.7,4.4-104.2,4.5-152.9-11.8c-41.2-13.8-76.8-43.2-85.7-87.5c-1.7-8.5-2.6-17.9-1.5-26.6c0.1-0.4-0.3-0.9-0.7-1
						c-0.6-0.1-1.3-0.2-1.9-0.3c-0.7-0.1-1.2,0.3-1.3,1c-2.5,18.9,3,39.3,11.4,56c11.3,22.5,30.8,39.4,52.8,51
						c46.7,24.7,103.6,27.1,155.2,24.7c17.1-0.8,34.1-2.3,51.1-4.4C813.9,1511.8,813.9,1509.8,812.6,1510z"/>
				</g>
			</g>
		</g>
		<g>
			<g>
				<g>
					<path class="st1" d="M1002.3,1290.8c-3.2-15.9-10.4-25.2-20-30c-35.6-22.3-122.2-30.5-221-18.1
						c-115.2,14.5-207.4,52-219.5,87.4c-9.2,18.6,14,47.5,23.8,63.6c27.9,44.5,33.9-11.9,59-10.7c28.8-0.4,36.6,51,51.5,65.5
						c38.4,34.4,56.3-0.5,67.1-29.2c10.3-32.9,40-36.6,70.7-22c34.8,16.3,52.6,1,72.8-25.5c28.5-34.1,39.4,0.5,70.8-0.2
						C1005.8,1371.1,1007,1317.5,1002.3,1290.8z M772.9,1323.5c-33.9,4.3-62.6-1.6-64.1-13.1c-1.4-11.5,24.9-24.3,58.9-28.5
						c33.9-4.3,62.6,1.6,64.1,13.1C833.2,1306.5,806.8,1319.3,772.9,1323.5z"/>
				</g>
			</g>
		</g>
		<g>
			<path class="st0" d="M848.1,1284.1c-4.5-20.9-49.9-17.4-50.4-17.3l-0.2-1.9c1.9-0.2,47.6-3.7,52.5,18.9L848.1,1284.1z"/>
		</g>
		<g>
			<circle class="st0" cx="627.5" cy="1320.5" r="12.4"/>
		</g>
		<g>
			<circle class="st0" cx="929.2" cy="1267.3" r="12.5"/>
		</g>
		<g>
			<circle class="st0" cx="823" cy="1354.4" r="13.4"/>
		</g>
		<g>
			<circle class="st0" cx="727.2" cy="1265.4" r="6.9"/>
		</g>
		<g>
			<circle class="st0" cx="706.6" cy="1379.1" r="5.8"/>
		</g>
	</g>
	<g>
		<circle class="st0" cx="929.3" cy="1352.3" r="5.6"/>
	</g>
	<g>
		<g>
			<g>
				<path class="st0" d="M699.2,968.2c0,0,39.9-10.4,60.9,12.3c21,22.7,33,73.5,19.6,79.2s-49.1-4.2-55.4-2.3"/>
				<g>
					<path class="st1" d="M699.6,969.7c13.1-3.4,27.9-3.4,40.9,0.5c21.5,6.4,32.4,29.1,38.7,48.9c2.8,8.7,4.8,17.9,4.6,27
						c0,3.2-0.5,6.6-2,9.5c-1.7,3.3-5.8,3.8-9.2,4.2c-9.6,1-19.5-0.7-29-2.1c-6-0.9-13.8-3.2-19.8-1.7c-1.9,0.5-1.1,3.4,0.8,2.9
						c2.5-0.6,5.5,0,8.1,0.3c5,0.6,9.9,1.4,14.9,2.1c9,1.2,18.3,2.4,27.4,1.2c15.4-2.1,12.3-21.2,10.1-32.3
						c-3.7-18.9-12.3-40.2-26.8-53.5c-13.4-12.2-33.8-13.8-50.9-11.5c-2.9,0.4-5.8,0.8-8.6,1.6C697,967.3,697.7,970.2,699.6,969.7
						L699.6,969.7z"/>
				</g>
			</g>
			<g>
				<g>
					<g>
						<path class="st0" d="M623.8,969.4c0,0,56.3-27.6,79.9-5c23.7,22.6,35.7,86.7,32.9,100.3c-2.8,13.6-48.1,30-57.8,31.7"/>
						<g>
							<path class="st1" d="M624.5,970.7c11.1-5.4,23.1-9.3,35.1-11.8c9.5-2,19.6-2.8,29.2-0.6c9.5,2.2,16,8.5,21.4,16.3
								c11.5,16.7,17.5,37.5,21.7,57.2c1.7,8.2,3.1,16.5,3.5,24.8c0.3,6.5-0.6,10.6-5.6,15c-7.9,6.9-18.3,11.4-27.9,15.4
								c-7.5,3.1-15.5,6.4-23.5,7.9c-1.9,0.4-1.1,3.3,0.8,2.9c15.3-3,31.2-10.3,44.4-18.2c5.4-3.2,11.7-7.4,14.1-13.5
								c1.9-4.7,0.7-11.4,0.2-16.2c-2-19-7-38-14.2-55.7c-6.2-15.4-15.1-33-32.1-38.3c-13.9-4.4-29.9-1.2-43.5,2.7
								c-8.6,2.4-17.1,5.5-25.1,9.4C621.3,968.9,622.8,971.5,624.5,970.7L624.5,970.7z"/>
						</g>
					</g>
					<g>
						<path class="st0" d="M518.4,991.7c0,0,77.8-49.6,113.6-23.5c35.8,26.1,60.1,83.8,61.1,111.6c1,27.8-29.3,70.4-50.2,74.8"/>
						<g>
							<path class="st1" d="M519.2,993c23-14.6,50.3-27.3,77.6-30.4c8.6-1,17.4-0.6,25.6,2.2c9.7,3.3,17.7,11.5,24.5,18.8
								c16.2,17.3,28.1,39,36.4,61.1c3.4,9.2,6.2,18.7,7.7,28.4c1.6,10.6-0.5,20.7-4.4,30.6c-4.6,11.7-11.7,22.7-19.9,32.1
								c-6.3,7.3-14.5,15-24.1,17.3c-1.9,0.4-1.1,3.3,0.8,2.9c17.7-4.1,31.1-23.2,39.6-37.9c5.2-9,9.3-18.8,11-29
								c1.4-7.9,0.3-15.9-1.3-23.7c-4.4-20.8-13.6-40.8-24.7-58.8c-6-9.7-12.9-18.8-20.8-27.1c-6.3-6.6-13.6-13.5-22.2-16.9
								c-21.4-8.5-46.8-0.6-67.2,7.5c-13.9,5.5-27.5,12.3-40.1,20.3C516,991.5,517.5,994.1,519.2,993L519.2,993z"/>
						</g>
					</g>
					<g>
						<path class="st0" d="M336.2,1144.3c0,0-15.6-43.5,40.6-98.7c56.3-55.1,116.9-80.1,151.2-58.4c34.3,21.7,105.7,113.7,116.8,146
							c11,32.3,10.7,50.5-9.9,77.2s-81.8,79.6-103.1,79.3s-55.5-11.2-55.5-11.2"/>
						<g>
							<path class="st1" d="M337.6,1143.9c-2.3-6.6-2.2-14.3-1.7-21.1c1.6-20.2,11.3-38.9,23.1-54.9c18-24.3,43-44.9,68.2-61.2
								c19.6-12.7,42.1-23.6,65.7-25.5c9-0.7,18.1,0.3,26.6,3.5c7.1,2.7,13.2,7.6,18.9,12.4c14.4,12.2,27.2,26.4,39.4,40.7
								c14,16.4,27.2,33.4,39.5,51.1c9.2,13.2,18.6,26.9,24.7,41.8c4.3,10.4,7.3,21.9,8.1,33.1c0.9,11.6-2.3,22.6-7.9,32.7
								c-9.8,17.6-25.3,32.2-40.1,45.7c-15.3,14-31.7,27.5-49.6,38c-5.9,3.4-12.5,7.2-19.4,8c-10.3,1.2-21.9-2.1-31.9-4.4
								c-8.4-1.9-16.7-4.1-24.9-6.7c-1.8-0.6-2.6,2.3-0.8,2.9c16.1,5.1,32.9,9.3,49.7,10.9c15.5,1.5,28.6-7.4,40.9-15.9
								c17.2-11.9,33.2-25.7,48.2-40.2c14-13.6,28.1-28.6,35.3-47c7.3-19,2.3-41.4-5.5-59.4c-6.4-14.9-15.8-28.7-25-41.9
								c-12-17.2-24.9-33.8-38.5-49.8c-12.3-14.5-25.2-28.7-39.6-41.1c-11.9-10.3-24.5-17-40.6-17.6c-21-0.8-41.9,7.6-60.1,17.3
								c-25.1,13.4-47.8,31.9-67.8,52.1c-16.4,16.5-30.4,36.3-36.9,58.9c-3.4,11.7-5.5,26.6-1.3,38.5
								C335.4,1146.5,338.3,1145.7,337.6,1143.9L337.6,1143.9z"/>
						</g>
					</g>
					<g>
						<path class="st0" d="M310.9,1268.1c0,0-22.6-40.7-15.4-68.6c7.3-27.9,31.4-76.6,63.4-63.7c32,12.8,95,60.4,116.1,96.5
							c21.1,36.1,19.8,50.1,6.3,70.5c-13.5,20.5-40.7,51.8-60.2,49.8"/>
						<g>
							<path class="st1" d="M312.1,1267.3c-7.5-13.5-13-28.6-15.6-43.8c-3.7-21.2,5-42.2,15.7-60.2c9.7-16.4,26.4-34.3,47.1-25.8
								c18.9,7.7,36.3,20.1,52.5,32.4c17.1,13,33.4,27.3,47.5,43.5c6.7,7.6,12.4,15.8,17.3,24.6c5.5,9.7,10.6,20,12.6,31.1
								c3.3,18.2-9.1,34-19.7,47.4c-6.8,8.6-14.4,16.6-22.8,23.6c-7,5.8-16,11.7-25.5,11c-1.9-0.1-1.9,2.9,0,3
								c8.9,0.7,17.2-4.1,24.2-9.2c9.3-6.7,17.2-15.3,24.5-24.1c10.9-13.1,23.5-28.9,22.9-46.9c-0.3-9.9-4.4-19.4-8.6-28.2
								c-4.9-10.2-10.8-19.7-17.8-28.6c-14.4-18.1-32.2-33.7-50.4-47.8c-16.2-12.5-33.4-24.5-52-33.1c-7.5-3.4-14.8-5.2-23-3.1
								c-8.4,2.1-15.4,8.2-21,14.4c-12.7,14.2-21,33.2-25.9,51.5c-5.1,19.3,2.4,40.9,10.1,58.5c1.7,3.8,3.4,7.6,5.5,11.3
								C310.5,1270.6,313.1,1269,312.1,1267.3L312.1,1267.3z"/>
						</g>
					</g>
					<g>
						<path class="st0" d="M303.4,1357.9c0,0-21.1-27.2-18.5-49.2c2.6-21.9,21.4-55.6,44.8-54.7c23.3,1,71.2,32.5,84.4,47.2
							s16.3,45.2,11.2,58.4c-5.1,13.2-36.6,35.4-42.7,34.5"/>
						<g>
							<path class="st1" d="M304.7,1357.1c-10.2-13.2-20-31.3-18.3-48.4c1-10.8,5.8-21.6,11.4-30.8c5.7-9.3,13.8-18.3,24.5-21.5
								c8.6-2.6,18.2,0.9,26.2,4c10.2,4,19.9,9.4,29.2,15.1c15.7,9.6,34.4,20.8,42.3,38.2c6.8,15,10.6,38.6-0.6,52.4
								c-5.5,6.8-12.7,12.6-19.8,17.7c-4.1,2.9-11.7,9.4-17.1,8.9c-1.9-0.2-1.9,2.8,0,3c5.6,0.5,12.5-5.1,16.8-8
								c7.9-5.3,15.4-11.5,21.6-18.7c12-13.8,9.2-35.4,3.8-51.5c-5.9-17.6-20.7-28.2-35.5-38.2c-16.1-10.9-34.6-22.2-53.9-26.1
								c-25.6-5.1-42.7,23-49.3,43.7c-4.1,13.1-2.7,25.4,2.5,38c3.5,8.4,8.2,16.5,13.7,23.7C303.3,1360.2,305.9,1358.7,304.7,1357.1
								L304.7,1357.1z"/>
						</g>
					</g>
					<g>
						<path class="st0" d="M356.1,1354.7c0,0-47-13.7-52.9-6.7c-5.9,6.9-11.2,47.1,5.3,74c16.5,26.9,41.3,50.7,57.5,45.1
							c16.1-5.6,28.3-42,26.3-64.8C390.3,1379.5,382,1359.3,356.1,1354.7z"/>
						<g>
							<path class="st1" d="M356.5,1353.2c-12-3.5-24.2-6.5-36.6-8.1c-5-0.6-12.3-2-16.8,1c-4.3,2.8-5.1,11.2-5.9,15.6
								c-3.4,21-0.3,44.2,11,62.4c7.1,11.4,15.6,22,25.4,31.1c6.7,6.2,15.5,12.9,24.9,13.9c10.9,1.1,18.1-7.1,23.3-15.7
								c7.2-12,10.9-26.4,12-40.3c1.1-12.8-1.3-26.7-7-38.2C380.8,1362.9,369.5,1355.7,356.5,1353.2c-1.9-0.4-2.7,2.5-0.8,2.9
								c11.6,2.2,21.2,8,27.4,18.3c5.5,9.2,7.6,20.8,8,31.3c0.4,11.4-2.2,22.9-6,33.6c-3.3,9.3-8.5,20.1-17.4,25.3
								c-9.5,5.5-21.4-2.8-28.6-8.6c-10.9-8.8-19.8-20.3-27.4-32c-12.4-19.1-15.6-44.3-10.7-66.4c0.9-4.1,1.8-9.1,6.5-10
								c6.1-1.1,13,0.4,19,1.5c9.9,1.7,19.7,4.2,29.3,6.9C357.6,1356.6,358.4,1353.7,356.5,1353.2z"/>
						</g>
					</g>
				</g>
				<g>
					<g>
						<path class="st1" d="M669.4,1055.9c1.9,13.6-2.4,25.8-3.7,39.1c-0.2,1.8,2.8,2.2,3.2,0.4c2.8-13.2,5.4-26.7,2.4-40.1
							C671,1054.1,669.2,1054.7,669.4,1055.9L669.4,1055.9z"/>
					</g>
				</g>
				<g>
					<g>
						<path class="st1" d="M667,975.5c7.3,0.4,14.6,2.1,21.1,5.3c3.3,1.6,6.3,3.9,9,6.5c3.1,3.1,4.6,6.9,6.9,10.5
							c0.5,0.8,2.1,0.6,2-0.5c-0.9-7.7-8-13.9-14.2-17.7c-7.4-4.5-16.2-6.3-24.8-6C665.8,973.6,665.8,975.4,667,975.5L667,975.5z"/>
					</g>
				</g>
				<g>
					<g>
						<path class="st1" d="M321.9,1271.2c-4.8,4.8-7.7,10.7-9.9,17.1c-2,5.8-4.3,14-3,20.2c0.3,1.2,2,1.1,2.4,0
							c1.8-5.7,1.6-12.1,3.3-17.9c1.8-6.5,5-12.6,9.1-18C324.5,1271.6,322.8,1270.4,321.9,1271.2L321.9,1271.2z"/>
					</g>
				</g>
				<g>
					<g>
						<path class="st1" d="M312,1358.3c-1.6,5.8-1.9,11.5-1.4,17.5c0.5,5.6,1.1,12.4,3.7,17.5c0.5,1.1,2.3,0.6,2.2-0.6
							c-0.2-4.7-1.9-9.4-2.7-14c-1.1-6.4-1.4-13.5,0.1-19.9C314.3,1357.6,312.4,1357.1,312,1358.3L312,1358.3z"/>
					</g>
				</g>
				<g>
					<g>
						<path class="st1" d="M338.4,1162.8c-5.2,6.7-9.3,13.6-12.3,21.5c-2.7,7.2-5.4,17.3-3.2,24.9c0.3,1.1,2.2,1.3,2.4,0
							c0.5-3.3,0.2-6.7,0.5-10.1c0.4-4.3,1.4-8.4,2.6-12.5c2.4-8,6.4-16,11.3-22.8C340.4,1163.1,339.1,1162,338.4,1162.8
							L338.4,1162.8z"/>
					</g>
				</g>
				<g>
					<g>
						<path class="st1" d="M362.6,1115.3c4.6-10.6,10.7-20.3,17.9-29.3c3.5-4.3,7.3-8.5,11.1-12.5c3.8-4,8.5-7.7,11.6-12.3
							c0.6-0.9-0.6-2-1.5-1.5c-4.6,3.1-8.4,7.7-12.2,11.8c-4.2,4.5-8.3,9.1-12.1,13.9c-7,8.8-13.1,18.5-16.5,29.3
							C360.6,1115.6,362.2,1116.3,362.6,1115.3L362.6,1115.3z"/>
					</g>
				</g>
				<g>
					<g>
						<path class="st1" d="M596.3,1096.2c13.7,15,20.6,35.9,23.8,55.6c1.7,10.5,2,21.2,1,31.7c-0.5,4.8-1.4,9.6-2.6,14.2
							c-1.2,4.3-3.9,8.7-4.5,13.1c-0.2,1.3,1.2,2.4,2.3,1.3c2.8-2.6,4.1-7.5,5.3-11.1c1.6-4.9,2.5-10,3.1-15
							c1.5-11.3,0.9-22.7-0.8-33.9c-3.1-20.9-11.2-42.3-26.2-57.4C596.8,1093.9,595.5,1095.3,596.3,1096.2L596.3,1096.2z"/>
					</g>
				</g>
				<g>
					<g>
						<path class="st1" d="M462.3,1256.3c4.1,9.1,4.2,18.3,5.2,27.9c0.1,1.3,2.1,1.8,2.4,0.3c2-9.7-1.8-20.6-6-29.2
							C463.4,1254.2,461.9,1255.2,462.3,1256.3L462.3,1256.3z"/>
					</g>
				</g>
				<g>
					<g>
						<path class="st1" d="M714.1,1014.1c1.1,5.7,1.7,11.9,3.5,17.4c0.4,1.3,2.1,1,2.3-0.3c0.6-5.9-1.9-12.2-3.8-17.6
							C715.7,1012.3,713.9,1012.8,714.1,1014.1L714.1,1014.1z"/>
					</g>
				</g>
			</g>
		</g>
		<g>
			<g>
				<path class="st1" d="M749.6,990.2c4.7,2.9,7.8,6.8,10.3,11.7c2.2,4.3,2.8,9.2,5,13.5c0.6,1.1,2.2,0.5,2.2-0.6
					c0.2-5.2-2.8-11.1-5.2-15.6c-2.5-4.6-6.3-9.2-11.5-10.8C749.3,988,748.6,989.6,749.6,990.2L749.6,990.2z"/>
			</g>
		</g>
	</g>
	<g>
		<g>
			<path class="st1" d="M1107.8,352.3c-36.3,14.8-51.7,54.9-46.4,91.9c2.7,18.5,9.9,36.2,21.6,50.8c14.3,17.8,31.4,33.5,46.6,50.6
				c19.2,21.5,38.6,45.7,45.2,74.4c3.1,13.6,2.1,27.6-2.7,40.7c-6.2,17.1-18.6,30.2-31.2,42.9c-1.6,1.6,0.8,3.9,2.5,2.5
				c18.6-15.2,33.4-36.8,36.6-61c2.7-20.5-4.6-40.8-14.7-58.3c-11.5-20-27.2-37.6-42.8-54.4c-8-8.6-16.1-17-24.2-25.6
				c-7.1-7.6-14.2-15.1-19.7-24c-12.8-20.7-17.6-46.6-13.4-70.5c4.4-25.7,20.2-46.1,43.5-57.5C1110.1,354,1109.2,351.7,1107.8,352.3
				L1107.8,352.3z"/>
		</g>
	</g>
	<g>
		<g>
			<path class="st1" d="M986.4,452.7c-16.2,9.2-23.5,30.1-24.5,47.8c-1.1,19,9.6,34.5,23,46.8c14.1,12.9,29.9,23.8,38.2,41.7
				c10.8,23.3,2.9,49.8-7.2,71.8c-1,2.2,2.1,4.1,3.2,1.9c9.6-18.7,16.3-42.7,11.4-63.6c-4.5-19-18-32.7-32.4-44.9
				c-14-11.9-28.7-24.2-32.5-43.1c-3.8-19,5-45.7,21.6-56.6C988.5,453.7,987.6,452.1,986.4,452.7L986.4,452.7z"/>
		</g>
	</g>
	<g>
		<path class="st1" d="M1574.3,1280.7c0,0,106.8,95.2,134,121c27.2,25.8,57.7,58.9,82.8,34.3c25-24.6,11.1-42.1-33.3-73.2
			c-44.4-31.1-166.9-111.8-166.9-111.8s5.1-21.6-5.3-33.4c-10.4-11.8-81.1-63.4-109.8-27.2s36.1,84.8,58.9,91.3
			S1574.3,1280.7,1574.3,1280.7z"/>
		<g>
			<g>
				<path class="st0" d="M1500.4,1243c0.1,3.1,3.4,5.9,5.4,7.9c3.5,3.6,7.4,6.8,11.4,9.7c7.4,5.4,18,10,27.3,9.6
					c1.5-0.1,1.8-2.2,0.3-2.6c-3.5-1-7.2-1.2-10.7-2c-5.1-1.2-9.8-3.7-14.2-6.5c-4.1-2.6-7.7-5.9-11.3-9.2c-2.5-2.3-4.5-5.8-7.4-7.5
					C1500.9,1242.3,1500.4,1242.6,1500.4,1243L1500.4,1243z"/>
			</g>
		</g>
		<g>
			<g>
				<path class="st0" d="M1558.9,1270.6c0.1,0,0.9,0.2,1.4,0.1c1-0.1,2-0.3,3-0.6c1.4-0.4,5.1-2.1,4.3-4.1c-0.1-0.3-0.4-0.7-0.8-0.6
					c-0.9,0.1-1.3,0.6-1.9,1.2c-0.8,0.7-1.8,1.1-2.8,1.5c-0.7,0.3-1.5,0.5-2.3,0.8c-0.3,0.1-1,0.5-1.1,0.6
					C1558,1269.5,1558.2,1270.6,1558.9,1270.6L1558.9,1270.6z"/>
			</g>
		</g>
	</g>
	<g>
		<g>
			<g>
				<path class="st3" d="M541.5,868.6c0.4-6.1,1.6-12.2,2.1-18.4c0.5-6.7,0.9-13.3,1.2-20c0.4-7,0.7-14.1,0.9-21.1
					c0.2-6.7,1.4-14.4-0.4-20.9c-1.1-3.9-6.5-3.7-7.7,0c-2.1,6.4-1.2,14.2-1.3,20.9c-0.1,7-0.3,14.1-0.4,21.1
					c-0.1,6.7-0.2,13.3-0.3,20c-0.1,6.1,0.5,12.3,0.3,18.4C535.9,872.2,541.3,872.1,541.5,868.6L541.5,868.6z"/>
			</g>
		</g>
		<g>
			<g>
				<path class="st3" d="M433.7,924.1c-3.8-12.1-9-23.8-13.9-35.5c-2.8-6.5-5.5-13.1-8.2-19.6c-2.2-5.3-3.8-11.6-7.9-15.8
					c-1.8-1.9-5-0.4-5.1,2.1c-0.1,5.4,2.8,10.3,4.9,15.1c2.7,6.2,5.6,12.3,8.5,18.4c5.8,12.4,11.4,24.8,17.5,37
					C430.7,928.2,434.5,926.6,433.7,924.1L433.7,924.1z"/>
			</g>
		</g>
		<g>
			<g>
				<path class="st3" d="M348.7,979.2c-8.1-7.1-16-14.4-24-21.6c-4.2-3.8-8.4-7.5-12.7-11.1c-3.4-3-7.1-7.2-11.7-8.1
					c-2.6-0.5-4.3,1.9-3.3,4.3c1.8,4,6.3,6.5,9.6,9.2c4.4,3.5,8.8,7.1,13.2,10.6c8.4,6.8,16.9,13.5,25.4,20.3
					C347.7,984.6,351.2,981.3,348.7,979.2L348.7,979.2z"/>
			</g>
		</g>
		<g>
			<g>
				<path class="st3" d="M284.3,1032.2c-10.5-6-21.1-12-31.7-17.7c-5.1-2.7-10.3-5.2-15.4-7.8c-5-2.5-11-6.6-16.7-6.5
					c-2.8,0.1-3.8,3.1-2.1,5.1c3.4,4.2,10.1,5.9,14.9,8.1c5.3,2.4,10.5,4.8,15.8,7.2c11,5.1,22.1,10.2,33,15.5
					C284.6,1037.5,286.9,1033.7,284.3,1032.2L284.3,1032.2z"/>
			</g>
		</g>
	</g>
	<g>
		<g>
			<path class="st1" d="M1427.8,526.9c-0.8-4.7-1.9-9.2-5.9-12.3c-4.8-3.7-10.1-5.3-16-4.5c-8.4,1.2-15,9-16,17.2
				c-1.1,9.5,4.8,16.6,13.7,19c12.7,3.5,24.5-6.2,24.3-19.3c0-1.3-2-1.3-2,0c0.1,5.5-2.3,10.5-6.3,14.3c-4.6,4.4-10.7,4.4-16.5,2.8
				c-7.9-2.2-12.3-9.3-11.1-17.3c1.1-7.1,6.6-12.9,13.6-14.6c5.1-1.2,10.1,0.5,14.4,3.4c4.1,2.7,5.1,7.3,5.9,11.8
				C1426.1,528.7,1428,528.2,1427.8,526.9z"/>
		</g>
	</g>
	<g>
		<path class="st1" d="M1689.5,964.4c0.7-0.2,1.3-0.3,2.1-0.2c17.8,0.4,30.1,5.8,36.5,16.1c10.2,16.4,0.2,38.1-0.2,39
			c-1.7,3.6-6,5.2-9.7,3.5c-3.6-1.7-5.2-6-3.5-9.7l0,0c2-4.3,6-17.2,1-25.2c-3.6-5.8-11.9-8.9-24.4-9.2c-4-0.1-7.2-3.4-7.1-7.4
			C1684.2,967.9,1686.4,965.2,1689.5,964.4z"/>
	</g>
	<g>
		<path class="st1" d="M749.4,674.5c-10,11-18.5,27.3-27.5,39.8c-14.8-9.1-31.6-34-38.9-48.2"/>
	</g>
</g>
</svg>
